<?xml version="1.0" encoding="UTF-8" standalone="no"?>
<!-- Created with Inkscape (http://www.inkscape.org/) -->

<svg
   xmlns:dc="http://purl.org/dc/elements/1.1/"
   xmlns:cc="http://creativecommons.org/ns#"
   xmlns:rdf="http://www.w3.org/1999/02/22-rdf-syntax-ns#"
   xmlns:svg="http://www.w3.org/2000/svg"
   xmlns="http://www.w3.org/2000/svg"
   xmlns:sodipodi="http://sodipodi.sourceforge.net/DTD/sodipodi-0.dtd"
   xmlns:inkscape="http://www.inkscape.org/namespaces/inkscape"
   height="85.423302mm"
   width="43.280472mm"
   viewBox="0 0 153.356 302.68099"
   id="svg40211"
   version="1.1"
   inkscape:version="0.91 r13725"
   sodipodi:docname="tree.svg">
  <defs
     id="defs40217" />
  <sodipodi:namedview
     pagecolor="#ffffff"
     bordercolor="#666666"
     borderopacity="1"
     objecttolerance="10"
     gridtolerance="10"
     guidetolerance="10"
     inkscape:pageopacity="0"
     inkscape:pageshadow="2"
     inkscape:window-width="1920"
     inkscape:window-height="1896"
     id="namedview40215"
     showgrid="false"
     fit-margin-top="0"
     fit-margin-left="0"
     fit-margin-right="0"
     fit-margin-bottom="0"
     inkscape:zoom="1.7940591"
     inkscape:cx="43.132595"
     inkscape:cy="37.483923"
     inkscape:window-x="0"
     inkscape:window-y="24"
     inkscape:window-maximized="1"
     inkscape:current-layer="svg40211" />
  <metadata
     id="metadata40213">
    <rdf:RDF>
      <cc:Work
         rdf:about="">
        <dc:format>image/svg+xml</dc:format>
        <dc:type
           rdf:resource="http://purl.org/dc/dcmitype/StillImage" />
        <dc:title></dc:title>
      </cc:Work>
    </rdf:RDF>
  </metadata>
  <g
     transform="matrix(-0.75081852,0,0,-0.74832724,267.67948,490.01372)"
     id="g8113">
    <path
       id="path8115"
       d="m 160.441,405.982 c 21.58,28.278 55.625,46.51 93.949,46.51 38.324,0 72.37,-18.232 93.951,-46.51 l -187.9,0 z"
       inkscape:connector-curvature="0"
       style="fill:#673b15" />
  </g>
  <g
     transform="translate(-178.20601,-251.236)"
     id="g8117">
    <rect
       id="rect8119"
       height="24.063999"
       width="15.93"
       y="381.91699"
       x="246.91901"
       style="fill:#b07f48" />
  </g>
  <g
     transform="translate(-178.364,-251.236)"
     id="g8881">
    <path
       id="path8883"
       d="m 309.882,553.917 -109.678,0 c -2.885,0 -5.359,-2.473 -5.359,-5.359 l 0,-50.079 c 0,-2.887 2.474,-5.358 5.359,-5.358 l 109.678,0 c 2.885,0 5.357,2.472 5.357,5.358 l 0,50.079 c 0.001,3.092 -2.471,5.359 -5.357,5.359 z"
       inkscape:connector-curvature="0"
       style="fill:#2d3c4f" />
  </g>
  <g
     transform="translate(-177.807,-251.236)"
     id="g8885">
    <path
       id="path8887"
       d="m 318.95,507.546 -128.931,0 c -3.71,0 -6.801,-3.091 -6.801,-6.8 l 0,-63.271 c 0,-3.71 3.091,-6.802 6.801,-6.802 l 128.931,0 c 3.709,0 6.802,3.092 6.802,6.802 l 0,63.475 c 0,3.505 -3.092,6.596 -6.802,6.596 z"
       inkscape:connector-curvature="0"
       style="fill:#324a5e" />
  </g>
  <g
     transform="translate(-177.806,-251.236)"
     id="g8889">
    <path
       id="path8891"
       d="m 309.265,463.649 -109.559,0 c -0.825,0 -1.443,-0.619 -1.443,-1.443 l 0,-16.899 c 0,-0.824 0.618,-1.442 1.443,-1.442 l 109.559,0 c 0.824,0 1.44,0.618 1.44,1.442 l 0,16.899 c 0.002,0.824 -0.617,1.443 -1.44,1.443 z"
       inkscape:connector-curvature="0"
       style="fill:#ffffff" />
  </g>
  <g
     transform="translate(-178.36499,-251.236)"
     id="g8893">
    <g
       id="g8895">
      <rect
         id="rect8897"
         height="8.4510002"
         width="65.538002"
         y="475.19"
         x="222.377"
         style="fill:#2d3c4f" />
    </g>
    <g
       id="g8899">
      <rect
         id="rect8901"
         height="4.1209998"
         width="76.047997"
         y="477.457"
         x="217.019"
         style="fill:#2d3c4f" />
    </g>
  </g>
  <g
     transform="translate(-178.365,-251.236)"
     id="g8903">
    <path
       id="path8905"
       d="m 286.678,478.693 -63.27,0 c -0.412,0 -0.825,0.413 -0.825,0.825 0,0.413 0.413,0.825 0.825,0.825 l 63.27,0 c 0.413,0 0.825,-0.412 0.825,-0.825 0,-0.412 -0.206,-0.825 -0.825,-0.825 z"
       inkscape:connector-curvature="0"
       style="fill:#ffffff" />
  </g>
  <g
     transform="translate(-178.207,-251.236)"
     id="g9445">
    <polygon
       id="polygon9447"
       points="268.194,301.938 284.807,301.938 254.885,272.015 224.962,301.938 241.574,301.938 206.088,337.424 226.241,337.424 178.207,385.458 331.563,385.458 283.529,337.424 303.681,337.424 "
       style="fill:#008a2e" />
  </g>
  <g
     transform="translate(-177.56649,-251.236)"
     id="g10185">
    <g
       id="g10187">
      <polygon
         id="polygon10189"
         points="261.26,270.904 254.871,267.543 248.481,270.904 249.701,263.788 244.531,258.748 251.676,257.71 254.871,251.236 258.065,257.71 265.21,258.748 260.04,263.788 "
         style="fill:#c6c7c8" />
    </g>
    <g
       id="g10191">
      <circle
         id="circle10193"
         r="2.319"
         cy="284.13599"
         cx="266.74399"
         style="fill:#c6c7c8" />
    </g>
    <g
       id="g10195">
      <circle
         id="circle10197"
         r="2.319"
         cy="292.56299"
         cx="248.05901"
         style="fill:#c6c7c8" />
    </g>
    <g
       id="g10199">
      <circle
         id="circle10201"
         r="2.319"
         cy="295.991"
         cx="237.351"
         style="fill:#c6c7c8" />
    </g>
    <g
       id="g10203">
      <circle
         id="circle10205"
         r="2.319"
         cy="287.28699"
         cx="257.64899"
         style="fill:#c6c7c8" />
    </g>
    <g
       id="g10207">
      <circle
         id="circle10209"
         r="2.319"
         cy="315.388"
         cx="252.883"
         style="fill:#c6c7c8" />
    </g>
    <g
       id="g10211">
      <circle
         id="circle10213"
         r="2.319"
         cy="320.02499"
         cx="242.89999"
         style="fill:#c6c7c8" />
    </g>
    <g
       id="g10215">
      <circle
         id="circle10217"
         r="2.319"
         cy="324.17899"
         cx="231.875"
         style="fill:#c6c7c8" />
    </g>
    <g
       id="g10219">
      <circle
         id="circle10221"
         r="2.319"
         cy="327.94901"
         cx="220.366"
         style="fill:#c6c7c8" />
    </g>
    <g
       id="g10223">
      <circle
         id="circle10225"
         r="2.319"
         cy="351.40399"
         cx="218.597"
         style="fill:#c6c7c8" />
    </g>
    <g
       id="g10227">
      <circle
         id="circle10229"
         r="2.319"
         cy="375.242"
         cx="197.819"
         style="fill:#c6c7c8" />
    </g>
    <g
       id="g10231">
      <circle
         id="circle10233"
         r="2.319"
         cy="382.29001"
         cx="292.758"
         style="fill:#c6c7c8" />
    </g>
    <g
       id="g10235">
      <circle
         id="circle10237"
         r="2.319"
         cy="380.93399"
         cx="303.276"
         style="fill:#c6c7c8" />
    </g>
    <g
       id="g10239">
      <circle
         id="circle10241"
         r="2.319"
         cy="363.621"
         cx="295.45499"
         style="fill:#c6c7c8" />
    </g>
    <g
       id="g10243">
      <circle
         id="circle10245"
         r="2.319"
         cy="366.439"
         cx="284.49301"
         style="fill:#c6c7c8" />
    </g>
    <g
       id="g10247">
      <circle
         id="circle10249"
         r="2.319"
         cy="371.07599"
         cx="275.647"
         style="fill:#c6c7c8" />
    </g>
    <g
       id="g10251">
      <circle
         id="circle10253"
         r="2.319"
         cy="373.845"
         cx="266.315"
         style="fill:#c6c7c8" />
    </g>
    <g
       id="g10255">
      <circle
         id="circle10257"
         r="2.319"
         cy="378.03299"
         cx="256.073"
         style="fill:#c6c7c8" />
    </g>
    <g
       id="g10259">
      <circle
         id="circle10261"
         r="2.319"
         cy="380.64001"
         cx="245.925"
         style="fill:#c6c7c8" />
    </g>
    <g
       id="g10263">
      <circle
         id="circle10265"
         r="2.319"
         cy="382.29001"
         cx="235.032"
         style="fill:#c6c7c8" />
    </g>
    <g
       id="g10267">
      <circle
         id="circle10269"
         r="2.319"
         cy="378.61499"
         cx="312.246"
         style="fill:#c6c7c8" />
    </g>
    <g
       id="g10271">
      <circle
         id="circle10273"
         r="2.319"
         cy="373.39499"
         cx="208.774"
         style="fill:#c6c7c8" />
    </g>
    <g
       id="g10275">
      <circle
         id="circle10277"
         r="2.319"
         cy="370.58499"
         cx="219.147"
         style="fill:#c6c7c8" />
    </g>
    <g
       id="g10279">
      <circle
         id="circle10281"
         r="2.319"
         cy="367.53101"
         cx="228.58299"
         style="fill:#c6c7c8" />
    </g>
    <g
       id="g10283">
      <circle
         id="circle10285"
         r="2.319"
         cy="363.621"
         cx="238.63499"
         style="fill:#c6c7c8" />
    </g>
    <g
       id="g10287">
      <circle
         id="circle10289"
         r="2.319"
         cy="359.76599"
         cx="248.94299"
         style="fill:#c6c7c8" />
    </g>
    <g
       id="g10291">
      <circle
         id="circle10293"
         r="2.319"
         cy="355.129"
         cx="259.142"
         style="fill:#c6c7c8" />
    </g>
    <g
       id="g10295">
      <circle
         id="circle10297"
         r="2.319"
         cy="351.40399"
         cx="268.20901"
         style="fill:#c6c7c8" />
    </g>
    <g
       id="g10299">
      <circle
         id="circle10301"
         r="2.3180001"
         cy="346.84299"
         cx="278.84399"
         style="fill:#c6c7c8" />
    </g>
    <g
       id="g10303">
      <circle
         id="circle10305"
         r="2.319"
         cy="347.401"
         cx="228.58299"
         style="fill:#c6c7c8" />
    </g>
    <g
       id="g10307">
      <circle
         id="circle10309"
         r="2.319"
         cy="343.422"
         cx="238.63499"
         style="fill:#c6c7c8" />
    </g>
    <g
       id="g10311">
      <circle
         id="circle10313"
         r="2.319"
         cy="339.88599"
         cx="248.245"
         style="fill:#c6c7c8" />
    </g>
    <g
       id="g10315">
      <circle
         id="circle10317"
         r="2.319"
         cy="337.224"
         cx="257.64899"
         style="fill:#c6c7c8" />
    </g>
    <g
       id="g10319">
      <circle
         id="circle10321"
         r="2.319"
         cy="332.039"
         cx="268.20901"
         style="fill:#c6c7c8" />
    </g>
    <g
       id="g10323">
      <circle
         id="circle10325"
         r="2.3180001"
         cy="327.401"
         cx="278.84399"
         style="fill:#c6c7c8" />
    </g>
    <g
       id="g10327">
      <circle
         id="circle10329"
         r="2.319"
         cy="310.83801"
         cx="263.57101"
         style="fill:#c6c7c8" />
    </g>
    <g
       id="g10331">
      <circle
         id="circle10333"
         r="2.319"
         cy="300.98999"
         cx="226.26401"
         style="fill:#c6c7c8" />
    </g>
    <g
       id="g10335">
      <circle
         id="circle10337"
         r="2.319"
         cy="332.586"
         cx="209.539"
         style="fill:#c6c7c8" />
    </g>
    <g
       id="g10339">
      <circle
         id="circle10341"
         r="2.319"
         cy="306.142"
         cx="272.37"
         style="fill:#c6c7c8" />
    </g>
    <g
       id="g10343">
      <circle
         id="circle10345"
         r="2.319"
         cy="322.34299"
         cx="289.13"
         style="fill:#c6c7c8" />
    </g>
    <g
       id="g10347">
      <circle
         id="circle10349"
         r="2.319"
         cy="353.72299"
         cx="208.774"
         style="fill:#c6c7c8" />
    </g>
    <g
       id="g10351">
      <circle
         id="circle10353"
         r="2.319"
         cy="377.03"
         cx="187.017"
         style="fill:#c6c7c8" />
    </g>
    <g
       id="g10355">
      <circle
         id="circle10357"
         r="2.319"
         cy="342.20499"
         cx="288.12"
         style="fill:#c6c7c8" />
    </g>
    <g
       id="g10359">
      <circle
         id="circle10361"
         r="2.319"
         cy="358.31299"
         cx="304.62299"
         style="fill:#c6c7c8" />
    </g>
    <g
       id="g10363">
      <circle
         id="circle10365"
         r="2.319"
         cy="383.82599"
         cx="223.37"
         style="fill:#c6c7c8" />
    </g>
    <g
       id="g10367">
      <circle
         id="circle10369"
         r="2.319"
         cy="384.228"
         cx="283.48199"
         style="fill:#c6c7c8" />
    </g>
    <g
       id="g10371">
      <circle
         id="circle10373"
         r="2.319"
         cy="375.71301"
         cx="321.47198"
         style="fill:#c6c7c8" />
    </g>
  </g>
</svg>
