<?xml version="1.0" encoding="iso-8859-1"?>
<!-- Generator: Adobe Illustrator 19.0.0, SVG Export Plug-In . SVG Version: 6.00 Build 0)  -->
<svg version="1.1" id="Layer_1" xmlns="http://www.w3.org/2000/svg" xmlns:xlink="http://www.w3.org/1999/xlink" x="0px" y="0px"
	 viewBox="0 0 508 508" style="enable-background:new 0 0 508 508;" xml:space="preserve">
<circle style="fill:#4CDBC4;" cx="254" cy="254" r="254"/>
<g>
	<path style="fill:#324A5E;" d="M202.4,100h-36.8c-1.6,0-3.2-1.2-3.2-3.2V82c0-1.6,1.2-3.2,3.2-3.2h36.8c1.6,0,3.2,1.2,3.2,3.2v14.8
		C205.2,98.4,204,100,202.4,100z"/>
	<path style="fill:#324A5E;" d="M227.2,429.2h-86.8c-8.4,0-15.2-6.8-15.2-15.2V109.6c0-8.4,6.8-15.2,15.2-15.2h86.8
		c8.4,0,15.2,6.8,15.2,15.2V414C242.4,422.4,235.6,429.2,227.2,429.2z"/>
</g>
<g>
	<path style="fill:#FFFFFF;" d="M242.4,162v-52.4c0-8.4-6.8-14.8-14.8-14.8h-87.2c-8.4,0-14.8,6.8-14.8,14.8V162H242.4z"/>
	<path style="fill:#FFFFFF;" d="M125.2,361.6V414c0,8.4,6.8,14.8,14.8,14.8h87.2c8.4,0,14.8-6.8,14.8-14.8v-52.4H125.2z"/>
</g>
<circle style="fill:#FF7058;" cx="184" cy="395.6" r="20"/>
<rect x="171.2" y="390.8" style="fill:#FFFFFF;" width="25.6" height="7.6"/>
<circle style="fill:#54C0EB;" cx="184" cy="128.4" r="20"/>
<polygon style="fill:#FFFFFF;" points="196.8,124.8 187.6,124.8 187.6,115.6 180,115.6 180,124.8 171.2,124.8 171.2,132 180,132 
	180,141.2 187.6,141.2 187.6,132 196.8,132 "/>
<g>
	<path style="fill:#324A5E;" d="M345.6,100h-36.8c-1.6,0-3.2-1.2-3.2-3.2V82c0-1.6,1.2-3.2,3.2-3.2h36.8c1.6,0,3.2,1.2,3.2,3.2v14.8
		C348.8,98.4,347.2,100,345.6,100z"/>
	<path style="fill:#324A5E;" d="M370.4,429.2h-86.8c-8.4,0-15.2-6.8-15.2-15.2V109.6c0-8.4,6.8-15.2,15.2-15.2h86.8
		c8.4,0,15.2,6.8,15.2,15.2V414C385.6,422.4,378.8,429.2,370.4,429.2z"/>
</g>
<g>
	<path style="fill:#FFFFFF;" d="M385.6,162v-52.4c0-8.4-6.8-14.8-14.8-14.8h-87.2c-8.4,0-14.8,6.8-14.8,14.8V162H385.6z"/>
	<path style="fill:#FFFFFF;" d="M268.4,361.6V414c0,8.4,6.8,14.8,14.8,14.8h87.2c8.4,0,14.8-6.8,14.8-14.8v-52.4H268.4z"/>
</g>
<circle style="fill:#FF7058;" cx="327.2" cy="395.6" r="20"/>
<rect x="314.4" y="390.8" style="fill:#FFFFFF;" width="25.6" height="7.6"/>
<circle style="fill:#54C0EB;" cx="327.2" cy="128.4" r="20"/>
<polygon style="fill:#FFFFFF;" points="340,124.8 330.8,124.8 330.8,115.6 323.6,115.6 323.6,124.8 314.4,124.8 314.4,132 
	323.6,132 323.6,141.2 330.8,141.2 330.8,132 340,132 "/>
<g>
</g>
<g>
</g>
<g>
</g>
<g>
</g>
<g>
</g>
<g>
</g>
<g>
</g>
<g>
</g>
<g>
</g>
<g>
</g>
<g>
</g>
<g>
</g>
<g>
</g>
<g>
</g>
<g>
</g>
</svg>
