<?xml version="1.0" encoding="iso-8859-1"?>
<!-- Generator: Adobe Illustrator 19.0.0, SVG Export Plug-In . SVG Version: 6.00 Build 0)  -->
<svg version="1.1" id="Layer_1" xmlns="http://www.w3.org/2000/svg" xmlns:xlink="http://www.w3.org/1999/xlink" x="0px" y="0px"
	 viewBox="0 0 508 508" style="enable-background:new 0 0 508 508;" xml:space="preserve">
<circle style="fill:#FD8469;" cx="254" cy="254" r="254"/>
<g>
	<path style="fill:#E6E9EE;" d="M202,165.6l-19.2,8.4L146,134c-4.4-5.2-2.8-13.2,3.2-16l21.6-9.6c5.2-2.4,11.6,0.4,13.6,6L202,165.6
		z"/>
	<path style="fill:#E6E9EE;" d="M251.2,355.2l19.2-8.8l36.4,40c4.4,5.2,2.8,13.2-3.2,16L282,412c-5.2,2.4-11.6-0.4-13.6-6
		L251.2,355.2z"/>
	<path style="fill:#E6E9EE;" d="M321.6,235.6l-8.8-19.2l40-36.4c5.2-4.4,13.2-2.8,16,3.2l9.6,21.6c2.4,5.2-0.4,11.6-6,13.6
		L321.6,235.6z"/>
	<path style="fill:#E6E9EE;" d="M131.6,285.2l8.8,19.2l-40,36.4c-5.2,4.4-13.2,2.8-16-3.2L74.8,316c-2.4-5.2,0.4-11.6,6-13.6
		L131.6,285.2z"/>
	<path style="fill:#E6E9EE;" d="M276.4,175.6l-19.6-7.6l2-54c0.4-6.8,7.2-11.2,13.6-8.8l22,8.4c5.6,2,8,8.4,5.6,13.6L276.4,175.6z"
		/>
	<path style="fill:#E6E9EE;" d="M176.8,345.2l19.6,7.6l-2.4,54c-0.4,6.8-7.2,11.2-13.6,8.8l-22-8.4c-5.6-2-8-8.4-5.6-13.6
		L176.8,345.2z"/>
	<path style="fill:#E6E9EE;" d="M311.2,310l7.6-19.6l54,2.4c6.8,0.4,11.2,7.2,8.8,13.6l-8.4,22c-2,5.6-8.4,8-13.6,5.6L311.2,310z"/>
	<path style="fill:#E6E9EE;" d="M142,210.8l-7.6,19.6l-54-2.4c-6.8-0.4-11.2-7.2-8.8-13.6l8.4-22c2-5.6,8.4-8,13.6-5.6L142,210.8z"
		/>
	<path style="fill:#E6E9EE;" d="M167.6,182l-14.4,15.6L104,174.8c-6-2.8-7.6-10.8-3.2-16l16.4-17.2c4-4.4,10.8-4.4,14.8,0.4
		L167.6,182z"/>
	<path style="fill:#E6E9EE;" d="M286,338.8l14.4-15.6l48.8,22.8c6,2.8,7.6,10.8,3.2,16L336,379.2c-4,4.4-10.8,4.4-14.8-0.4
		L286,338.8z"/>
	<path style="fill:#E6E9EE;" d="M304.8,201.2l-15.6-14.4l22.8-49.2c2.8-6,10.8-7.6,16-3.2l17.2,16.4c4.4,4,4.4,10.8-0.4,14.8
		L304.8,201.2z"/>
	<path style="fill:#E6E9EE;" d="M148.4,319.6L164,334l-22.8,49.2c-2.8,6-10.8,7.6-16,3.2L107.6,370c-4.4-4-4.4-10.8,0.4-14.8
		L148.4,319.6z"/>
	<path style="fill:#E6E9EE;" d="M240,163.2l-21.2,0.8l-18.4-50.8c-2.4-6.4,2.4-13.2,9.2-13.6l23.6-0.8c6,0,10.8,4.8,10.4,10.8
		L240,163.2z"/>
	<path style="fill:#E6E9EE;" d="M213.2,357.6l21.2-0.8l18.4,50.8c2.4,6.4-2.4,13.2-9.2,13.6L220,422c-6,0-10.8-4.8-10.4-10.8
		L213.2,357.6z"/>
	<path style="fill:#E6E9EE;" d="M324,274l-0.8-21.2l50.8-18.4c6.4-2.4,13.2,2.4,13.6,9.2l0.8,23.6c0,6-4.8,10.8-10.8,10.4L324,274z"
		/>
	<path style="fill:#E6E9EE;" d="M129.6,246.8l0.8,21.2l-50.8,18.4c-6.4,2.4-13.2-2.4-13.6-9.2l-0.8-23.6c0-6,4.8-10.8,10.8-10.4
		L129.6,246.8z"/>
</g>
<path style="fill:#CED5E0;" d="M176.8,150.8L176.8,150.8c-60.4,27.2-87.2,98.8-60,159.2l0,0c27.6,60.8,98.8,87.6,159.6,60l0,0
	c60.8-27.6,87.6-98.8,60-159.6l0,0C309.2,150,237.6,123.2,176.8,150.8z"/>
<path style="fill:#ACB3BA;" d="M187.2,172.8L187.2,172.8c-48.4,22-69.6,78.8-48,127.2l0,0c22,48.4,78.8,69.6,127.2,48l0,0
	c48-22,69.6-78.8,47.6-127.2l0,0C292.4,172.4,235.2,151.2,187.2,172.8z"/>
<path style="fill:#CED5E0;" d="M194,188L194,188c-40,18-57.6,65.2-39.6,105.2l0,0c18,40,65.2,57.6,105.2,39.6l0,0
	c40-18,57.6-65.2,39.6-105.2l0,0C280.8,187.6,234,170,194,188z"/>
<path style="fill:#324A5E;" d="M205.6,214L205.6,214c-25.6,11.6-36.8,41.6-25.2,67.2l0,0c11.6,25.6,41.6,36.8,67.2,25.2l0,0
	c25.6-11.6,36.8-41.6,25.2-67.2l0,0C261.2,214,231.2,202.4,205.6,214z"/>
<path style="fill:#2B3B4E;" d="M217.6,240.4L217.6,240.4c-11.2,5.2-16,18-10.8,29.2l0,0c5.2,11.2,18,16,29.2,10.8l0,0
	c11.2-5.2,16-18,10.8-29.2l0,0C241.6,240.4,228.8,235.2,217.6,240.4z"/>
<g>
	<path style="fill:#FFFFFF;" d="M287.6,45.6c-46.8,2.4-88,18-118.8,42.4c36-12.4,76.4-14.4,115.6-5.2c8,2,16.4-1.6,20.4-8.8l0.4-0.4
		C312,60.4,302.4,44.8,287.6,45.6z"/>
	<path style="fill:#FFFFFF;" d="M413.6,137.2c-39.2-25.6-82-37.2-121.2-35.6c36.4,11.2,70,33.2,96.4,64c5.2,6.4,14.4,8.4,21.6,4.8
		h0.4C424.4,164,426,145.6,413.6,137.2z"/>
	<path style="fill:#FFFFFF;" d="M442,274c-14.4-44.4-40.4-80.4-72-103.6c21.6,31.2,33.6,70,35.2,110c0.4,8.4,6,15.2,14,17.6h0.4
		C434,302,446.8,288.4,442,274z"/>
	<path style="fill:#FFFFFF;" d="M374,420.4c21.6-41.6,28.4-85.2,23.2-124c-7.2,37.2-26,73.2-53.6,102.4c-5.6,6-6.8,15.2-2.4,22
		l0.4,0.4C348.4,434.4,367.2,433.6,374,420.4z"/>
</g>
<g>
</g>
<g>
</g>
<g>
</g>
<g>
</g>
<g>
</g>
<g>
</g>
<g>
</g>
<g>
</g>
<g>
</g>
<g>
</g>
<g>
</g>
<g>
</g>
<g>
</g>
<g>
</g>
<g>
</g>
</svg>
