<?xml version="1.0" encoding="UTF-8" standalone="no"?>
<svg
   xmlns:dc="http://purl.org/dc/elements/1.1/"
   xmlns:cc="http://creativecommons.org/ns#"
   xmlns:rdf="http://www.w3.org/1999/02/22-rdf-syntax-ns#"
   xmlns:svg="http://www.w3.org/2000/svg"
   xmlns="http://www.w3.org/2000/svg"
   xml:space="preserve"
   style="enable-background:new 0 0 508 508;"
   viewBox="0 0 508 508"
   y="0px"
   x="0px"
   id="Layer_1"
   version="1.1"><metadata
     id="metadata4086"><rdf:RDF><cc:Work
         rdf:about=""><dc:format>image/svg+xml</dc:format><dc:type
           rdf:resource="http://purl.org/dc/dcmitype/StillImage" /><dc:title></dc:title></cc:Work></rdf:RDF></metadata><defs
     id="defs4084" /><circle
     id="circle4046"
     r="254"
     cy="254"
     cx="254"
     style="fill:#ffcc00;fill-opacity:1" /><path
     id="path4048"
     d="M440.4,269.2v-31.6l-37.6-5.6c-1.6-12-4.8-23.6-9.2-34.8l29.6-23.6l-15.6-27.2l-35.2,14  c-7.6-9.6-16-18-25.2-25.2l14-35.2L334,84.4l-24,29.2c-10.8-4.4-22.8-7.6-34.8-9.2l-5.6-37.6H238l-5.6,37.6  c-12,1.6-23.6,4.8-34.8,9.2L174,84l-27.2,15.6l14,35.2c-9.6,7.6-18,16-25.2,25.2l-35.2-14l-15.6,27.2l29.6,23.6  c-4.4,10.8-7.6,22.8-9.2,34.8l-37.6,5.6v31.6l37.6,5.6c1.6,12,4.8,23.6,9.2,34.8l-29.6,23.6l15.6,27.2l35.2-14  c7.6,9.6,16,18,25.2,25.2l-14,35.2L174,422l23.6-29.6c10.8,4.4,22.8,7.6,34.8,9.2l5.6,37.6h31.6l5.6-37.6c12-1.6,23.6-4.8,34.8-9.2  l23.6,29.6l27.2-15.6l-14-35.2c9.6-7.6,18-16,25.2-25.2l35.2,14l15.6-27.2l-29.6-23.6c4.4-10.8,7.6-22.8,9.2-34.8L440.4,269.2z   M254,368.4c-63.6,0-114.8-51.6-114.8-114.8c0-63.6,51.2-115.2,114.8-115.2S368.8,190,368.8,253.2  C368.8,316.8,317.6,368.4,254,368.4z"
     style="fill:#806600" /><g
     id="g4052" /><g
     id="g4054" /><g
     id="g4056" /><g
     id="g4058" /><g
     id="g4060" /><g
     id="g4062" /><g
     id="g4064" /><g
     id="g4066" /><g
     id="g4068" /><g
     id="g4070" /><g
     id="g4072" /><g
     id="g4074" /><g
     id="g4076" /><g
     id="g4078" /><g
     id="g4080" /><g
     style="fill:#ffffff;fill-opacity:1"
     transform="matrix(4.8156997,0,0,4.8156997,174.17629,171.91282)"
     id="g3712"><path
       id="path3674"
       d="m 10.097225,33.557291 c -0.087,0 -0.1740002,-0.022 -0.2520002,-0.068 -0.209,-0.122 -0.301,-0.375 -0.218,-0.603 l 5.2230002,-14.359 -6.3130002,-1.801 c -0.163,-0.046 -0.292,-0.172 -0.342,-0.334 -0.049,-0.162 -0.014,-0.339 0.096,-0.469 L 21.096225,0.71129119 c 0.152,-0.181 0.41,-0.228 0.618,-0.119 0.208,0.111 0.311,0.354 0.245,0.58000001 l -3.692,12.8069998 6.347,1.811 c 0.164,0.046 0.293,0.173 0.342,0.336 0.05,0.163 0.012,0.341 -0.099,0.47 l -14.38,16.787 c -0.098,0.113 -0.238,0.174 -0.38,0.174 z"
       style="fill:#ffffff;fill-opacity:1;stroke:none;stroke-opacity:1" /><g
       style="fill:#ffffff;fill-opacity:1"
       id="g3676" /><g
       style="fill:#ffffff;fill-opacity:1"
       id="g3678" /><g
       style="fill:#ffffff;fill-opacity:1"
       id="g3680" /><g
       style="fill:#ffffff;fill-opacity:1"
       id="g3682" /><g
       style="fill:#ffffff;fill-opacity:1"
       id="g3684" /><g
       style="fill:#ffffff;fill-opacity:1"
       id="g3686" /><g
       style="fill:#ffffff;fill-opacity:1"
       id="g3688" /><g
       style="fill:#ffffff;fill-opacity:1"
       id="g3690" /><g
       style="fill:#ffffff;fill-opacity:1"
       id="g3692" /><g
       style="fill:#ffffff;fill-opacity:1"
       id="g3694" /><g
       style="fill:#ffffff;fill-opacity:1"
       id="g3696" /><g
       style="fill:#ffffff;fill-opacity:1"
       id="g3698" /><g
       style="fill:#ffffff;fill-opacity:1"
       id="g3700" /><g
       style="fill:#ffffff;fill-opacity:1"
       id="g3702" /><g
       style="fill:#ffffff;fill-opacity:1"
       id="g3704" /></g></svg>