<?xml version="1.0" encoding="UTF-8" standalone="no"?>
<svg
   xmlns:dc="http://purl.org/dc/elements/1.1/"
   xmlns:cc="http://creativecommons.org/ns#"
   xmlns:rdf="http://www.w3.org/1999/02/22-rdf-syntax-ns#"
   xmlns:svg="http://www.w3.org/2000/svg"
   xmlns="http://www.w3.org/2000/svg"
   xml:space="preserve"
   style="enable-background:new 0 0 508 508;"
   viewBox="0 0 508 508"
   y="0px"
   x="0px"
   id="Layer_1"
   version="1.1"><metadata
     id="metadata3650"><rdf:RDF><cc:Work
         rdf:about=""><dc:format>image/svg+xml</dc:format><dc:type
           rdf:resource="http://purl.org/dc/dcmitype/StillImage" /><dc:title></dc:title></cc:Work></rdf:RDF></metadata><defs
     id="defs3648" /><circle
     id="circle3612"
     r="254"
     cy="254"
     cx="254"
     style="fill:#ffcc00" /><g
     id="g3616" /><g
     id="g3618" /><g
     id="g3620" /><g
     id="g3622" /><g
     id="g3624" /><g
     id="g3626" /><g
     id="g3628" /><g
     id="g3630" /><g
     id="g3632" /><g
     id="g3634" /><g
     id="g3636" /><g
     id="g3638" /><g
     id="g3640" /><g
     id="g3642" /><g
     id="g3644" /><g
     style="fill:#ffffff;fill-opacity:1"
     transform="matrix(10.964236,0,0,10.964236,72.259854,67.106442)"
     id="g3712"><path
       id="path3674"
       d="m 10.097225,33.557291 c -0.087,0 -0.1740002,-0.022 -0.2520002,-0.068 -0.209,-0.122 -0.301,-0.375 -0.218,-0.603 l 5.2230002,-14.359 -6.3130002,-1.801 c -0.163,-0.046 -0.292,-0.172 -0.342,-0.334 -0.049,-0.162 -0.014,-0.339 0.096,-0.469 L 21.096225,0.71129119 c 0.152,-0.181 0.41,-0.228 0.618,-0.119 0.208,0.111 0.311,0.354 0.245,0.58000001 l -3.692,12.8069998 6.347,1.811 c 0.164,0.046 0.293,0.173 0.342,0.336 0.05,0.163 0.012,0.341 -0.099,0.47 l -14.38,16.787 c -0.098,0.113 -0.238,0.174 -0.38,0.174 z"
       style="fill:#ffffff;fill-opacity:1;stroke:none;stroke-opacity:1" /><g
       style="fill:#ffffff;fill-opacity:1"
       id="g3676" /><g
       style="fill:#ffffff;fill-opacity:1"
       id="g3678" /><g
       style="fill:#ffffff;fill-opacity:1"
       id="g3680" /><g
       style="fill:#ffffff;fill-opacity:1"
       id="g3682" /><g
       style="fill:#ffffff;fill-opacity:1"
       id="g3684" /><g
       style="fill:#ffffff;fill-opacity:1"
       id="g3686" /><g
       style="fill:#ffffff;fill-opacity:1"
       id="g3688" /><g
       style="fill:#ffffff;fill-opacity:1"
       id="g3690" /><g
       style="fill:#ffffff;fill-opacity:1"
       id="g3692" /><g
       style="fill:#ffffff;fill-opacity:1"
       id="g3694" /><g
       style="fill:#ffffff;fill-opacity:1"
       id="g3696" /><g
       style="fill:#ffffff;fill-opacity:1"
       id="g3698" /><g
       style="fill:#ffffff;fill-opacity:1"
       id="g3700" /><g
       style="fill:#ffffff;fill-opacity:1"
       id="g3702" /><g
       style="fill:#ffffff;fill-opacity:1"
       id="g3704" /></g></svg>