<?xml version="1.0" encoding="iso-8859-1"?>
<!-- Generator: Adobe Illustrator 19.0.0, SVG Export Plug-In . SVG Version: 6.00 Build 0)  -->
<svg version="1.1" id="Layer_1" xmlns="http://www.w3.org/2000/svg" xmlns:xlink="http://www.w3.org/1999/xlink" x="0px" y="0px"
	 viewBox="0 0 508 508" style="enable-background:new 0 0 508 508;" xml:space="preserve">
<circle style="fill:#FFD05B;" cx="254" cy="254" r="254"/>
<path style="fill:#FFFFFF;" d="M206.8,370h94.4c8.4,0,14.8-6.4,16-14.4c3.6-33.6,16-66,35.6-94c13.6-19.6,21.6-43.2,21.6-68.8
	c0-69.2-58.4-124.8-128.8-120C186,76.8,138,124.8,134,184c-2,29.2,6.4,56,21.6,78c19.6,28,32.4,60,35.6,93.6
	C192,363.6,198.8,370,206.8,370z"/>
<g>
	<ellipse style="fill:none;stroke:#E6E9EE;stroke-width:0.686;stroke-miterlimit:10;" cx="278.4" cy="185.6" rx="8" ry="16"/>
	<ellipse style="fill:none;stroke:#E6E9EE;stroke-width:0.686;stroke-miterlimit:10;" cx="262" cy="185.6" rx="8" ry="16"/>
	<ellipse style="fill:none;stroke:#E6E9EE;stroke-width:0.686;stroke-miterlimit:10;" cx="246" cy="185.6" rx="8" ry="16"/>
	<ellipse style="fill:none;stroke:#E6E9EE;stroke-width:0.686;stroke-miterlimit:10;" cx="229.6" cy="185.6" rx="8" ry="16"/>
</g>
<g>
	<path style="fill:#E6E9EE;" d="M271.6,370v-93.2c0-9.6-8-17.6-17.6-17.6s-17.6,8-17.6,17.6V370H271.6z"/>
	<rect x="247.2" y="222.4" style="fill:#E6E9EE;" width="13.6" height="51.6"/>
</g>
<g>
	<polyline style="fill:none;stroke:#E6E9EE;stroke-width:0.686;stroke-linejoin:round;stroke-miterlimit:10;" points="262.8,270.8 
		314.8,185.6 286.4,185.6 	"/>
	<polyline style="fill:none;stroke:#E6E9EE;stroke-width:0.686;stroke-linejoin:round;stroke-miterlimit:10;" points="245.2,270.8 
		193.2,185.6 221.6,185.6 	"/>
</g>
<path style="fill:#2B3B4E;" d="M300.8,370h-93.6v58.4c0,9.6,7.6,17.2,17.2,17.2H284c9.6,0,17.2-7.6,17.2-17.2V370H300.8z"/>
<g>
	<path style="fill:#324A5E;" d="M304,390.4H203.6c-2.4,0-4.8-2-4.8-4.8l0,0c0-2.4,2-4.8,4.8-4.8H304c2.4,0,4.8,2,4.8,4.8l0,0
		C308.8,388.4,306.4,390.4,304,390.4z"/>
	<path style="fill:#324A5E;" d="M304,407.6H203.6c-2.4,0-4.8-2-4.8-4.8l0,0c0-2.4,2-4.8,4.8-4.8H304c2.4,0,4.8,2,4.8,4.8l0,0
		C308.8,405.6,306.4,407.6,304,407.6z"/>
	<path style="fill:#324A5E;" d="M304,424.8H203.6c-2.4,0-4.8-2-4.8-4.8l0,0c0-2.4,2-4.8,4.8-4.8H304c2.4,0,4.8,2,4.8,4.8l0,0
		C308.8,422.8,306.4,424.8,304,424.8z"/>
</g>
<g>
</g>
<g>
</g>
<g>
</g>
<g>
</g>
<g>
</g>
<g>
</g>
<g>
</g>
<g>
</g>
<g>
</g>
<g>
</g>
<g>
</g>
<g>
</g>
<g>
</g>
<g>
</g>
<g>
</g>
</svg>
