<?xml version="1.0" encoding="UTF-8" standalone="no"?>
<svg
   xmlns:dc="http://purl.org/dc/elements/1.1/"
   xmlns:cc="http://creativecommons.org/ns#"
   xmlns:rdf="http://www.w3.org/1999/02/22-rdf-syntax-ns#"
   xmlns:svg="http://www.w3.org/2000/svg"
   xmlns="http://www.w3.org/2000/svg"
   version="1.1"
   id="svg2"
   viewBox="0 0 507.42119 507.69984"
   width="143.20554mm"
   height="143.28418mm">
  <defs
     id="defs8" />
  <metadata
     id="metadata4">
    <rdf:RDF>
      <cc:Work
         rdf:about="">
        <dc:format>image/svg+xml</dc:format>
        <dc:type
           rdf:resource="http://purl.org/dc/dcmitype/StillImage" />
        <dc:title></dc:title>
      </cc:Work>
    </rdf:RDF>
  </metadata>
  <g
     transform="matrix(3.8846534,0,0,3.886787,8.1088336e-6,9.3279092e-6)"
     id="g4092">
    <g
       id="g18987"
       transform="translate(-2781.4163,-140.16923)">
      <g
         id="g18989">
        <circle
           style="fill:#c6c7c8"
           cx="2846.7273"
           cy="205.48022"
           r="65.310997"
           id="circle18991" />
      </g>
    </g>
    <g
       id="g18993"
       transform="translate(-2775.5144,-131.462)">
      <g
         id="g18995">
        <ellipse
           style="fill:#b1b3b4"
           cx="2853.825"
           cy="147.51401"
           rx="9.066"
           ry="6.8340001"
           id="ellipse18997" />
        <path
           style="fill:#9c9e9f"
           d="m 2853.825,154.848 c -5.275,0 -9.566,-3.29 -9.566,-7.334 0,-4.045 4.292,-7.335 9.566,-7.335 5.274,0 9.566,3.29 9.566,7.335 0,4.044 -4.291,7.334 -9.566,7.334 l 0,0 z m 0,-13.669 c -4.724,0 -8.566,2.842 -8.566,6.335 0,3.492 3.843,6.334 8.566,6.334 4.723,0 8.566,-2.842 8.566,-6.334 0,-3.493 -3.843,-6.335 -8.566,-6.335 l 0,0 z"
           id="path18999" />
      </g>
      <g
         id="g19001">
        <circle
           style="fill:#b1b3b4"
           cx="2869.4741"
           cy="154.601"
           r="8.3690004"
           id="circle19003" />
        <path
           style="fill:#9c9e9f"
           d="m 2869.474,163.47 c -4.891,0 -8.869,-3.979 -8.869,-8.869 0,-4.89 3.979,-8.869 8.869,-8.869 4.89,0 8.869,3.979 8.869,8.869 0,4.89 -3.978,8.869 -8.869,8.869 l 0,0 z m 0,-16.739 c -4.339,0 -7.869,3.53 -7.869,7.869 0,4.339 3.53,7.869 7.869,7.869 4.339,0 7.869,-3.53 7.869,-7.869 0,-4.339 -3.53,-7.869 -7.869,-7.869 l 0,0 z"
           id="path19005" />
      </g>
      <g
         id="g19007">
        <ellipse
           style="fill:#b1b3b4"
           cx="2850.1411"
           cy="210.50301"
           rx="15.463"
           ry="9.427"
           id="ellipse19009" />
        <path
           style="fill:#9c9e9f"
           d="m 2850.141,220.43 c -8.802,0 -15.963,-4.453 -15.963,-9.927 0,-5.475 7.161,-9.929 15.963,-9.929 8.802,0 15.963,4.454 15.963,9.929 0,5.474 -7.161,9.927 -15.963,9.927 l 0,0 z m 0,-18.856 c -8.25,0 -14.963,4.005 -14.963,8.929 0,4.922 6.712,8.927 14.963,8.927 8.251,0 14.963,-4.004 14.963,-8.927 0,-4.923 -6.712,-8.929 -14.963,-8.929 l 0,0 z"
           id="path19011" />
      </g>
      <g
         id="g19013">
        <ellipse
           style="fill:#b1b3b4"
           cx="2876.8311"
           cy="220.278"
           rx="14.273"
           ry="11.545"
           id="ellipse19015" />
        <path
           style="fill:#9c9e9f"
           d="m 2876.831,232.323 c -8.146,0 -14.773,-5.403 -14.773,-12.045 0,-6.642 6.627,-12.045 14.773,-12.045 8.146,0 14.773,5.403 14.773,12.045 0,6.642 -6.627,12.045 -14.773,12.045 l 0,0 z m 0,-23.09 c -7.595,0 -13.773,4.955 -13.773,11.045 0,6.09 6.178,11.045 13.773,11.045 7.595,0 13.773,-4.955 13.773,-11.045 0,-6.09 -6.179,-11.045 -13.773,-11.045 l 0,0 z"
           id="path19017" />
      </g>
      <g
         id="g19019">
        <ellipse
           style="fill:#b1b3b4"
           transform="matrix(0.7641,0.6451,-0.6451,0.7641,771.7275,-1769.3521)"
           cx="2805.073"
           cy="170.496"
           rx="15.451"
           ry="27.093"
           id="ellipse19021" />
        <path
           style="fill:#9c9e9f"
           d="m 2794.432,193.977 c -2.866,0 -5.274,-0.807 -7.159,-2.397 -6.72,-5.675 -4.203,-19.749 5.611,-31.373 6.87,-8.138 15.618,-13.192 22.83,-13.192 2.865,0 5.274,0.807 7.158,2.397 3.297,2.783 4.504,7.607 3.399,13.585 -1.087,5.877 -4.287,12.195 -9.011,17.79 -6.868,8.135 -15.616,13.19 -22.828,13.19 l 0,0 z m 21.282,-45.963 c -6.821,0 -15.482,5.039 -22.065,12.837 -9.459,11.203 -12.03,24.646 -5.73,29.965 1.699,1.434 3.891,2.161 6.514,2.161 6.82,0 15.481,-5.039 22.064,-12.836 4.613,-5.464 7.735,-11.617 8.791,-17.326 1.037,-5.609 -0.05,-10.098 -3.061,-12.64 -1.699,-1.434 -3.891,-2.161 -6.513,-2.161 l 0,0 z"
           id="path19023" />
      </g>
      <g
         id="g19025">
        <circle
           style="fill:#b1b3b4"
           cx="2805.073"
           cy="231.086"
           r="10.137"
           id="circle19027" />
        <path
           style="fill:#9c9e9f"
           d="m 2805.078,241.725 c -4.278,0 -8.123,-2.544 -9.794,-6.481 -1.111,-2.614 -1.138,-5.504 -0.074,-8.139 1.064,-2.635 3.09,-4.697 5.704,-5.808 1.327,-0.563 2.724,-0.849 4.154,-0.849 4.277,0 8.122,2.543 9.794,6.48 2.293,5.398 -0.233,11.655 -5.63,13.948 -1.327,0.563 -2.724,0.849 -4.154,0.849 l 0,0 z m -0.011,-20.277 c -1.294,0 -2.561,0.259 -3.763,0.77 -2.369,1.006 -4.204,2.875 -5.167,5.262 -0.964,2.387 -0.94,5.005 0.066,7.374 1.516,3.567 4.999,5.873 8.875,5.873 1.294,0 2.561,-0.259 3.762,-0.769 4.89,-2.078 7.179,-7.747 5.102,-12.638 -1.516,-3.568 -4.999,-5.872 -8.875,-5.872 l 0,0 z"
           id="path19029" />
      </g>
      <g
         id="g19031">
        <circle
           style="fill:#b1b3b4"
           cx="2818.6321"
           cy="243.8"
           r="8.4040003"
           id="circle19033" />
        <path
           style="fill:#9c9e9f"
           d="m 2818.636,252.706 c -3.581,0 -6.798,-2.129 -8.198,-5.425 -1.919,-4.519 0.195,-9.756 4.713,-11.676 1.111,-0.472 2.281,-0.711 3.479,-0.711 3.58,0 6.798,2.129 8.197,5.424 0.931,2.189 0.953,4.61 0.063,6.815 -0.891,2.206 -2.586,3.932 -4.775,4.862 -1.112,0.471 -2.282,0.711 -3.479,0.711 l 0,0 z m -0.01,-16.812 c -1.063,0 -2.101,0.212 -3.087,0.631 -4.011,1.704 -5.888,6.354 -4.184,10.365 1.242,2.925 4.099,4.815 7.277,4.815 1.062,0 2.101,-0.212 3.087,-0.631 1.943,-0.826 3.448,-2.358 4.238,-4.316 0.791,-1.958 0.771,-4.106 -0.055,-6.05 -1.241,-2.925 -4.098,-4.814 -7.276,-4.814 l 0,0 z"
           id="path19035" />
      </g>
      <g
         id="g19037">
        <circle
           style="fill:#b1b3b4"
           cx="2889.241"
           cy="203.517"
           r="8.4029999"
           id="circle19039" />
        <path
           style="fill:#9c9e9f"
           d="m 2889.244,212.422 c -3.58,0 -6.798,-2.129 -8.198,-5.425 -0.93,-2.189 -0.951,-4.608 -0.062,-6.813 0.891,-2.206 2.586,-3.932 4.776,-4.862 1.11,-0.472 2.281,-0.711 3.478,-0.711 3.58,0 6.798,2.128 8.197,5.423 1.919,4.52 -0.195,9.758 -4.714,11.677 -1.11,0.472 -2.28,0.711 -3.477,0.711 l 0,0 z m -0.01,-16.811 c -1.063,0 -2.101,0.212 -3.087,0.631 -1.944,0.826 -3.449,2.358 -4.239,4.315 -0.79,1.957 -0.771,4.105 0.055,6.049 1.243,2.926 4.1,4.816 7.277,4.816 1.062,0 2.101,-0.212 3.087,-0.631 4.011,-1.704 5.888,-6.354 4.185,-10.366 -1.243,-2.925 -4.099,-4.814 -7.278,-4.814 l 0,0 z"
           id="path19041" />
      </g>
      <g
         id="g19043">
        <circle
           style="fill:#b1b3b4"
           cx="2829.0549"
           cy="249.33299"
           r="3.5339999"
           id="circle19045" />
        <path
           style="fill:#9c9e9f"
           d="m 2829.056,253.367 c -1.623,0 -3.081,-0.964 -3.715,-2.457 -0.421,-0.992 -0.431,-2.088 -0.027,-3.088 0.403,-0.999 1.172,-1.781 2.164,-2.203 0.503,-0.213 1.033,-0.322 1.575,-0.322 1.621,0 3.079,0.965 3.713,2.458 0.421,0.991 0.432,2.087 0.028,3.086 -0.404,0.999 -1.171,1.781 -2.163,2.203 -0.503,0.215 -1.033,0.323 -1.575,0.323 l 0,0 z m 0,-7.069 c -0.407,0 -0.806,0.082 -1.185,0.242 -1.54,0.654 -2.261,2.439 -1.607,3.979 0.477,1.122 1.574,1.848 2.795,1.848 0.407,0 0.806,-0.082 1.185,-0.242 0.746,-0.317 1.323,-0.905 1.626,-1.657 0.303,-0.752 0.295,-1.576 -0.022,-2.321 -0.476,-1.124 -1.573,-1.849 -2.792,-1.849 l 0,0 z"
           id="path19047" />
      </g>
    </g>
  </g>
  <rect
     id="rect3198"
     height="168.8"
     width="27.6"
     style="fill:#000000;fill-opacity:1"
     y="227.08279"
     x="239.53836" />
  <rect
     id="rect3200"
     height="40.799999"
     width="27.6"
     style="fill:#455063;fill-opacity:1"
     y="227.08279"
     x="239.53836" />
  <path
     id="path3204"
     d="m 300.73836,420.6828 -94.4,0 0,-5.6 c 0,-10.4 8.4,-19.2 19.2,-19.2 l 56,0 c 10.4,0 19.2,8.4 19.2,19.2 l 0,5.6 z"
     style="fill:#455063;fill-opacity:1" />
  <path
     id="path3206"
     d="m 424.33836,251.8828 -341.600001,0 c -3.2,0 -4.8,-4.4 -3.2,-9.6 l 35.200001,-134.4 c 0.8,-3.2 3.6,-6 6,-6 l 264.8,0 c 2.4,0 5.2,2.8 6,6 l 35.2,134.4 c 2,5.2 0.8,9.6 -2.4,9.6 z"
     style="fill:#000000;fill-opacity:1" />
  <polygon
     transform="translate(-0.46164069,-0.11720297)"
     id="polygon3208"
     points="176.4,131.2 180,106 124.4,106 118,131.2 "
     style="fill:#54c0eb" />
  <g
     transform="translate(-0.46164069,-0.11720297)"
     id="g3210">
    <polygon
       id="polygon3212"
       points="169.2,131.2 166.8,131.2 170.8,106 173.2,106 "
       style="fill:#84dbff" />
    <polygon
       id="polygon3214"
       points="158.8,131.2 156.4,131.2 160.8,106 163.2,106 "
       style="fill:#84dbff" />
    <polygon
       id="polygon3216"
       points="148.4,131.2 146,131.2 150.8,106 153.2,106 "
       style="fill:#84dbff" />
    <polygon
       id="polygon3218"
       points="138,131.2 135.6,131.2 141.2,106 143.6,106 "
       style="fill:#84dbff" />
    <polygon
       id="polygon3220"
       points="128,131.2 125.2,131.2 131.2,106 133.6,106 "
       style="fill:#84dbff" />
    <polygon
       id="polygon3222"
       points="118.8,127.6 119.2,126.8 177.2,126.8 176.8,127.6 "
       style="fill:#84dbff" />
    <polygon
       id="polygon3224"
       points="120,123.2 120.4,122 177.6,122 177.6,123.2 "
       style="fill:#84dbff" />
    <polygon
       id="polygon3226"
       points="121.2,118.8 121.2,117.6 178.4,117.6 178,118.8 "
       style="fill:#84dbff" />
    <polygon
       id="polygon3228"
       points="122.4,114.4 122.4,113.2 178.8,113.2 178.8,114.4 "
       style="fill:#84dbff" />
    <polygon
       id="polygon3230"
       points="123.2,110 123.6,108.8 179.6,108.8 179.6,110 "
       style="fill:#84dbff" />
  </g>
  <polygon
     transform="translate(-0.46164069,-0.11720297)"
     id="polygon3232"
     points="247.6,131.2 248,106 192.4,106 189.2,131.2 "
     style="fill:#54c0eb" />
  <g
     transform="translate(-0.46164069,-0.11720297)"
     id="g3234">
    <polygon
       id="polygon3236"
       points="240.4,131.2 238,131.2 238.8,106 240.8,106 "
       style="fill:#84dbff" />
    <polygon
       id="polygon3238"
       points="230,131.2 227.6,131.2 228.8,106 231.2,106 "
       style="fill:#84dbff" />
    <polygon
       id="polygon3240"
       points="219.6,131.2 217.2,131.2 218.8,106 221.2,106 "
       style="fill:#84dbff" />
    <polygon
       id="polygon3242"
       points="209.2,131.2 206.8,131.2 209.2,106 211.2,106 "
       style="fill:#84dbff" />
    <polygon
       id="polygon3244"
       points="198.8,131.2 196.4,131.2 199.2,106 201.6,106 "
       style="fill:#84dbff" />
    <polygon
       id="polygon3246"
       points="189.6,127.6 189.6,126.8 247.6,126.8 247.6,127.6 "
       style="fill:#84dbff" />
    <polygon
       id="polygon3248"
       points="190,123.2 190.4,122 247.6,122 247.6,123.2 "
       style="fill:#84dbff" />
    <polygon
       id="polygon3250"
       points="190.8,118.8 190.8,117.6 247.6,117.6 247.6,118.8 "
       style="fill:#84dbff" />
    <polygon
       id="polygon3252"
       points="191.2,114.4 191.2,113.2 247.6,113.2 247.6,114.4 "
       style="fill:#84dbff" />
    <polygon
       id="polygon3254"
       points="191.6,110 192,108.8 248,108.8 248,110 "
       style="fill:#84dbff" />
  </g>
  <polygon
     transform="translate(-0.46164069,-0.11720297)"
     id="polygon3256"
     points="318.8,131.2 316,106 260,106 260.4,131.2 "
     style="fill:#54c0eb" />
  <g
     transform="translate(-0.46164069,-0.11720297)"
     id="g3258">
    <polygon
       id="polygon3260"
       points="311.6,131.2 309.2,131.2 306.4,106 308.8,106 "
       style="fill:#84dbff" />
    <polygon
       id="polygon3262"
       points="301.2,131.2 298.8,131.2 296.8,106 299.2,106 "
       style="fill:#84dbff" />
    <polygon
       id="polygon3264"
       points="290.8,131.2 288.4,131.2 286.8,106 289.2,106 "
       style="fill:#84dbff" />
    <polygon
       id="polygon3266"
       points="280.4,131.2 278,131.2 276.8,106 279.2,106 "
       style="fill:#84dbff" />
    <polygon
       id="polygon3268"
       points="270,131.2 267.6,131.2 267.2,106 269.2,106 "
       style="fill:#84dbff" />
    <polygon
       id="polygon3270"
       points="260.4,127.6 260.4,126.8 318.4,126.8 318.4,127.6 "
       style="fill:#84dbff" />
    <polygon
       id="polygon3272"
       points="260.4,123.2 260.4,122 317.6,122 318,123.2 "
       style="fill:#84dbff" />
    <polygon
       id="polygon3274"
       points="260.4,118.8 260.4,117.6 317.2,117.6 317.2,118.8 "
       style="fill:#84dbff" />
    <polygon
       id="polygon3276"
       points="260,114.4 260,113.2 316.8,113.2 316.8,114.4 "
       style="fill:#84dbff" />
    <polygon
       id="polygon3278"
       points="260,110 260,108.8 316,108.8 316.4,110 "
       style="fill:#84dbff" />
  </g>
  <polygon
     transform="translate(-0.46164069,-0.11720297)"
     id="polygon3280"
     points="390,131.2 383.6,106 328,106 331.6,131.2 "
     style="fill:#54c0eb" />
  <g
     transform="translate(-0.46164069,-0.11720297)"
     id="g3282">
    <polygon
       id="polygon3284"
       points="382.8,131.2 380.4,131.2 374.4,106 376.8,106 "
       style="fill:#84dbff" />
    <polygon
       id="polygon3286"
       points="372.4,131.2 370,131.2 364.4,106 366.8,106 "
       style="fill:#84dbff" />
    <polygon
       id="polygon3288"
       points="362,131.2 359.6,131.2 354.8,106 357.2,106 "
       style="fill:#84dbff" />
    <polygon
       id="polygon3290"
       points="351.6,131.2 349.2,131.2 344.8,106 347.2,106 "
       style="fill:#84dbff" />
    <polygon
       id="polygon3292"
       points="341.2,131.2 338.8,131.2 334.8,106 337.2,106 "
       style="fill:#84dbff" />
    <polygon
       id="polygon3294"
       points="331.2,127.6 330.8,126.8 388.8,126.8 389.2,127.6 "
       style="fill:#84dbff" />
    <polygon
       id="polygon3296"
       points="330.4,123.2 330.4,122 387.6,122 388,123.2 "
       style="fill:#84dbff" />
    <polygon
       id="polygon3298"
       points="330,118.8 329.6,117.6 386.4,117.6 386.8,118.8 "
       style="fill:#84dbff" />
    <polygon
       id="polygon3300"
       points="329.2,114.4 329.2,113.2 385.6,113.2 385.6,114.4 "
       style="fill:#84dbff" />
    <polygon
       id="polygon3302"
       points="328.4,110 328.4,108.8 384.4,108.8 384.8,110 "
       style="fill:#84dbff" />
  </g>
  <polygon
     transform="translate(-0.46164069,-0.11720297)"
     id="polygon3304"
     points="171.6,164.4 175.6,136.4 116.8,136.4 110,164.4 "
     style="fill:#54c0eb" />
  <g
     transform="translate(-0.46164069,-0.11720297)"
     id="g3306">
    <polygon
       id="polygon3308"
       points="164,164.4 161.6,164.4 166,136.4 168.4,136.4 "
       style="fill:#84dbff" />
    <polygon
       id="polygon3310"
       points="153.2,164.4 150.4,164.4 155.6,136.4 158,136.4 "
       style="fill:#84dbff" />
    <polygon
       id="polygon3312"
       points="142,164.4 139.6,164.4 145.2,136.4 147.6,136.4 "
       style="fill:#84dbff" />
    <polygon
       id="polygon3314"
       points="131.2,164.4 128.4,164.4 134.4,136.4 137.2,136.4 "
       style="fill:#84dbff" />
    <polygon
       id="polygon3316"
       points="120,164.4 117.6,164.4 124,136.4 126.8,136.4 "
       style="fill:#84dbff" />
    <polygon
       id="polygon3318"
       points="110.8,160.8 111.2,159.6 172.4,159.6 172.4,160.8 "
       style="fill:#84dbff" />
    <polygon
       id="polygon3320"
       points="112,155.6 112.4,154.4 173.2,154.4 172.8,155.6 "
       style="fill:#84dbff" />
    <polygon
       id="polygon3322"
       points="113.2,150.8 113.6,149.6 174,149.6 173.6,150.8 "
       style="fill:#84dbff" />
    <polygon
       id="polygon3324"
       points="114.4,145.6 114.8,144.4 174.4,144.4 174.4,145.6 "
       style="fill:#84dbff" />
    <polygon
       id="polygon3326"
       points="115.6,140.8 116,139.6 175.2,139.6 175.2,140.8 "
       style="fill:#84dbff" />
  </g>
  <polygon
     transform="translate(-0.46164069,-0.11720297)"
     id="polygon3328"
     points="247.2,164.4 247.6,136.4 188.8,136.4 185.2,164.4 "
     style="fill:#54c0eb" />
  <g
     transform="translate(-0.46164069,-0.11720297)"
     id="g3330">
    <polygon
       id="polygon3332"
       points="239.6,164.4 236.8,164.4 237.6,136.4 240.4,136.4 "
       style="fill:#84dbff" />
    <polygon
       id="polygon3334"
       points="228.4,164.4 226,164.4 227.2,136.4 229.6,136.4 "
       style="fill:#84dbff" />
    <polygon
       id="polygon3336"
       points="217.6,164.4 214.8,164.4 216.8,136.4 219.2,136.4 "
       style="fill:#84dbff" />
    <polygon
       id="polygon3338"
       points="206.4,164.4 204,164.4 206.4,136.4 208.8,136.4 "
       style="fill:#84dbff" />
    <polygon
       id="polygon3340"
       points="195.6,164.4 193.2,164.4 196,136.4 198.4,136.4 "
       style="fill:#84dbff" />
    <polygon
       id="polygon3342"
       points="185.6,160.8 186,159.6 247.2,159.6 247.2,160.8 "
       style="fill:#84dbff" />
    <polygon
       id="polygon3344"
       points="186.4,155.6 186.4,154.4 247.2,154.4 247.2,155.6 "
       style="fill:#84dbff" />
    <polygon
       id="polygon3346"
       points="186.8,150.8 187.2,149.6 247.2,149.6 247.2,150.8 "
       style="fill:#84dbff" />
    <polygon
       id="polygon3348"
       points="187.6,145.6 187.6,144.4 247.6,144.4 247.6,145.6 "
       style="fill:#84dbff" />
    <polygon
       id="polygon3350"
       points="188,140.8 188.4,139.6 247.6,139.6 247.6,140.8 "
       style="fill:#84dbff" />
  </g>
  <polygon
     transform="translate(-0.46164069,-0.11720297)"
     id="polygon3352"
     points="322.8,164.4 319.2,136.4 260.4,136.4 260.8,164.4 "
     style="fill:#54c0eb" />
  <g
     transform="translate(-0.46164069,-0.11720297)"
     id="g3354">
    <polygon
       id="polygon3356"
       points="314.8,164.4 312.4,164.4 309.6,136.4 312,136.4 "
       style="fill:#84dbff" />
    <polygon
       id="polygon3358"
       points="304,164.4 301.6,164.4 299.2,136.4 301.6,136.4 "
       style="fill:#84dbff" />
    <polygon
       id="polygon3360"
       points="293.2,164.4 290.4,164.4 288.8,136.4 291.2,136.4 "
       style="fill:#84dbff" />
    <polygon
       id="polygon3362"
       points="282,164.4 279.6,164.4 278.4,136.4 280.8,136.4 "
       style="fill:#84dbff" />
    <polygon
       id="polygon3364"
       points="271.2,164.4 268.4,164.4 268,136.4 270.4,136.4 "
       style="fill:#84dbff" />
    <polygon
       id="polygon3366"
       points="260.8,160.8 260.8,159.6 322,159.6 322.4,160.8 "
       style="fill:#84dbff" />
    <polygon
       id="polygon3368"
       points="260.8,155.6 260.8,154.4 321.6,154.4 321.6,155.6 "
       style="fill:#84dbff" />
    <polygon
       id="polygon3370"
       points="260.8,150.8 260.4,149.6 320.8,149.6 321.2,150.8 "
       style="fill:#84dbff" />
    <polygon
       id="polygon3372"
       points="260.4,145.6 260.4,144.4 320.4,144.4 320.4,145.6 "
       style="fill:#84dbff" />
    <polygon
       id="polygon3374"
       points="260.4,140.8 260.4,139.6 319.6,139.6 320,140.8 "
       style="fill:#84dbff" />
  </g>
  <polygon
     transform="translate(-0.46164069,-0.11720297)"
     id="polygon3376"
     points="398.4,164.4 391.2,136.4 332.4,136.4 336.4,164.4 "
     style="fill:#54c0eb" />
  <g
     transform="translate(-0.46164069,-0.11720297)"
     id="g3378">
    <polygon
       id="polygon3380"
       points="390.4,164.4 388,164.4 381.6,136.4 384,136.4 "
       style="fill:#84dbff" />
    <polygon
       id="polygon3382"
       points="379.6,164.4 376.8,164.4 370.8,136.4 373.6,136.4 "
       style="fill:#84dbff" />
    <polygon
       id="polygon3384"
       points="368.4,164.4 366,164.4 360.4,136.4 362.8,136.4 "
       style="fill:#84dbff" />
    <polygon
       id="polygon3386"
       points="357.6,164.4 354.8,164.4 350,136.4 352.4,136.4 "
       style="fill:#84dbff" />
    <polygon
       id="polygon3388"
       points="346.4,164.4 344,164.4 339.6,136.4 342,136.4 "
       style="fill:#84dbff" />
    <polygon
       id="polygon3390"
       points="335.6,160.8 335.6,159.6 396.8,159.6 397.2,160.8 "
       style="fill:#84dbff" />
    <polygon
       id="polygon3392"
       points="335.2,155.6 334.8,154.4 395.6,154.4 396,155.6 "
       style="fill:#84dbff" />
    <polygon
       id="polygon3394"
       points="334.4,150.8 334,149.6 394.4,149.6 394.8,150.8 "
       style="fill:#84dbff" />
    <polygon
       id="polygon3396"
       points="333.6,145.6 333.6,144.4 393.2,144.4 393.6,145.6 "
       style="fill:#84dbff" />
    <polygon
       id="polygon3398"
       points="332.8,140.8 332.8,139.6 392,139.6 392.4,140.8 "
       style="fill:#84dbff" />
  </g>
  <polygon
     transform="translate(-0.46164069,-0.11720297)"
     id="polygon3400"
     points="166.4,202.4 170.8,170.4 108.4,170.4 100.4,202.4 "
     style="fill:#54c0eb" />
  <g
     transform="translate(-0.46164069,-0.11720297)"
     id="g3402">
    <polygon
       id="polygon3404"
       points="158.4,202.4 155.6,202.4 160.4,170.4 163.2,170.4 "
       style="fill:#84dbff" />
    <polygon
       id="polygon3406"
       points="146.4,202.4 143.6,202.4 149.6,170.4 152,170.4 "
       style="fill:#84dbff" />
    <polygon
       id="polygon3408"
       points="134.8,202.4 132,202.4 138.4,170.4 140.8,170.4 "
       style="fill:#84dbff" />
    <polygon
       id="polygon3410"
       points="123.2,202.4 120.4,202.4 127.2,170.4 130,170.4 "
       style="fill:#84dbff" />
    <polygon
       id="polygon3412"
       points="111.6,202.4 108.8,202.4 116,170.4 118.8,170.4 "
       style="fill:#84dbff" />
    <polygon
       id="polygon3414"
       points="101.6,198 102,196.8 167.2,196.8 166.8,198 "
       style="fill:#84dbff" />
    <polygon
       id="polygon3416"
       points="102.8,192.4 103.2,190.8 168,190.8 167.6,192.4 "
       style="fill:#84dbff" />
    <polygon
       id="polygon3418"
       points="104.4,186.4 104.8,185.2 168.8,185.2 168.8,186.4 "
       style="fill:#84dbff" />
    <polygon
       id="polygon3420"
       points="105.6,180.8 106,179.6 169.6,179.6 169.2,180.8 "
       style="fill:#84dbff" />
    <polygon
       id="polygon3422"
       points="107.2,175.6 107.6,174 170.4,174 170,175.6 "
       style="fill:#84dbff" />
  </g>
  <polygon
     transform="translate(-0.46164069,-0.11720297)"
     id="polygon3424"
     points="246.8,202.4 247.2,170.4 184.8,170.4 180.8,202.4 "
     style="fill:#54c0eb" />
  <g
     transform="translate(-0.46164069,-0.11720297)"
     id="g3426">
    <polygon
       id="polygon3428"
       points="238.4,202.4 236,202.4 236.8,170.4 239.2,170.4 "
       style="fill:#84dbff" />
    <polygon
       id="polygon3430"
       points="226.8,202.4 224,202.4 225.6,170.4 228.4,170.4 "
       style="fill:#84dbff" />
    <polygon
       id="polygon3432"
       points="215.2,202.4 212.4,202.4 214.4,170.4 217.2,170.4 "
       style="fill:#84dbff" />
    <polygon
       id="polygon3434"
       points="203.6,202.4 200.8,202.4 203.6,170.4 206,170.4 "
       style="fill:#84dbff" />
    <polygon
       id="polygon3436"
       points="192,202.4 189.2,202.4 192.4,170.4 195.2,170.4 "
       style="fill:#84dbff" />
    <polygon
       id="polygon3438"
       points="181.2,198 181.6,196.8 246.8,196.8 246.8,198 "
       style="fill:#84dbff" />
    <polygon
       id="polygon3440"
       points="182,192.4 182,190.8 246.8,190.8 246.8,192.4 "
       style="fill:#84dbff" />
    <polygon
       id="polygon3442"
       points="182.8,186.4 182.8,185.2 246.8,185.2 246.8,186.4 "
       style="fill:#84dbff" />
    <polygon
       id="polygon3444"
       points="183.2,180.8 183.6,179.6 247.2,179.6 247.2,180.8 "
       style="fill:#84dbff" />
    <polygon
       id="polygon3446"
       points="184,175.6 184,174 247.2,174 247.2,175.6 "
       style="fill:#84dbff" />
  </g>
  <polygon
     transform="translate(-0.46164069,-0.11720297)"
     id="polygon3448"
     points="327.2,202.4 323.6,170.4 260.8,170.4 261.2,202.4 "
     style="fill:#54c0eb" />
  <g
     transform="translate(-0.46164069,-0.11720297)"
     id="g3450">
    <polygon
       id="polygon3452"
       points="318.8,202.4 316,202.4 312.8,170.4 315.6,170.4 "
       style="fill:#84dbff" />
    <polygon
       id="polygon3454"
       points="307.2,202.4 304.4,202.4 302,170.4 304.4,170.4 "
       style="fill:#84dbff" />
    <polygon
       id="polygon3456"
       points="295.6,202.4 292.8,202.4 290.8,170.4 293.6,170.4 "
       style="fill:#84dbff" />
    <polygon
       id="polygon3458"
       points="284,202.4 281.2,202.4 279.6,170.4 282.4,170.4 "
       style="fill:#84dbff" />
    <polygon
       id="polygon3460"
       points="272.4,202.4 269.6,202.4 268.8,170.4 271.2,170.4 "
       style="fill:#84dbff" />
    <polygon
       id="polygon3462"
       points="261.2,198 261.2,196.8 326.4,196.8 326.8,198 "
       style="fill:#84dbff" />
    <polygon
       id="polygon3464"
       points="261.2,192.4 261.2,190.8 325.6,190.8 326,192.4 "
       style="fill:#84dbff" />
    <polygon
       id="polygon3466"
       points="261.2,186.4 261.2,185.2 325.2,185.2 325.2,186.4 "
       style="fill:#84dbff" />
    <polygon
       id="polygon3468"
       points="260.8,180.8 260.8,179.6 324.4,179.6 324.8,180.8 "
       style="fill:#84dbff" />
    <polygon
       id="polygon3470"
       points="260.8,175.6 260.8,174 324,174 324,175.6 "
       style="fill:#84dbff" />
  </g>
  <polygon
     transform="translate(-0.46164069,-0.11720297)"
     id="polygon3472"
     points="407.6,202.4 399.6,170.4 337.2,170.4 341.6,202.4 "
     style="fill:#54c0eb" />
  <g
     transform="translate(-0.46164069,-0.11720297)"
     id="g3474">
    <polygon
       id="polygon3476"
       points="399.2,202.4 396.4,202.4 389.2,170.4 392,170.4 "
       style="fill:#84dbff" />
    <polygon
       id="polygon3478"
       points="387.6,202.4 384.8,202.4 378,170.4 380.8,170.4 "
       style="fill:#84dbff" />
    <polygon
       id="polygon3480"
       points="376,202.4 373.2,202.4 367.2,170.4 369.6,170.4 "
       style="fill:#84dbff" />
    <polygon
       id="polygon3482"
       points="364.4,202.4 361.6,202.4 356,170.4 358.8,170.4 "
       style="fill:#84dbff" />
    <polygon
       id="polygon3484"
       points="352.4,202.4 350,202.4 344.8,170.4 347.6,170.4 "
       style="fill:#84dbff" />
    <polygon
       id="polygon3486"
       points="340.8,198 340.8,196.8 406,196.8 406.4,198 "
       style="fill:#84dbff" />
    <polygon
       id="polygon3488"
       points="340,192.4 340,190.8 404.8,190.8 405.2,192.4 "
       style="fill:#84dbff" />
    <polygon
       id="polygon3490"
       points="339.2,186.4 339.2,185.2 403.2,185.2 403.6,186.4 "
       style="fill:#84dbff" />
    <polygon
       id="polygon3492"
       points="338.4,180.8 338.4,179.6 402,179.6 402.4,180.8 "
       style="fill:#84dbff" />
    <polygon
       id="polygon3494"
       points="338,175.6 337.6,174 400.4,174 400.8,175.6 "
       style="fill:#84dbff" />
  </g>
  <polygon
     transform="translate(-0.46164069,-0.11720297)"
     id="polygon3496"
     points="160.4,245.2 165.6,208.8 98.8,208.8 90,245.2 "
     style="fill:#54c0eb" />
  <g
     transform="translate(-0.46164069,-0.11720297)"
     id="g3498">
    <polygon
       id="polygon3500"
       points="151.6,245.2 148.8,245.2 154.4,208.8 157.2,208.8 "
       style="fill:#84dbff" />
    <polygon
       id="polygon3502"
       points="139.2,245.2 136,245.2 142.4,208.8 145.2,208.8 "
       style="fill:#84dbff" />
    <polygon
       id="polygon3504"
       points="126.4,245.2 123.6,245.2 130.8,208.8 133.6,208.8 "
       style="fill:#84dbff" />
    <polygon
       id="polygon3506"
       points="114,245.2 111.2,245.2 118.8,208.8 121.6,208.8 "
       style="fill:#84dbff" />
    <polygon
       id="polygon3508"
       points="101.6,245.2 98.8,245.2 107.2,208.8 110,208.8 "
       style="fill:#84dbff" />
    <polygon
       id="polygon3510"
       points="91.2,240.4 91.6,238.8 161.2,238.8 160.8,240.4 "
       style="fill:#84dbff" />
    <polygon
       id="polygon3512"
       points="92.8,234 93.2,232.4 162,232.4 162,234 "
       style="fill:#84dbff" />
    <polygon
       id="polygon3514"
       points="94.4,227.2 94.8,226 163.2,226 162.8,227.2 "
       style="fill:#84dbff" />
    <polygon
       id="polygon3516"
       points="96,221.2 96.4,219.6 164,219.6 163.6,221.2 "
       style="fill:#84dbff" />
    <polygon
       id="polygon3518"
       points="97.2,214.8 97.6,213.2 164.8,213.2 164.8,214.8 "
       style="fill:#84dbff" />
  </g>
  <polygon
     transform="translate(-0.46164069,-0.11720297)"
     id="polygon3520"
     points="246.4,245.2 246.8,208.8 180,208.8 176,245.2 "
     style="fill:#54c0eb" />
  <g
     transform="translate(-0.46164069,-0.11720297)"
     id="g3522">
    <polygon
       id="polygon3524"
       points="237.6,245.2 234.4,245.2 235.6,208.8 238.4,208.8 "
       style="fill:#84dbff" />
    <polygon
       id="polygon3526"
       points="225.2,245.2 222,245.2 224,208.8 226.8,208.8 "
       style="fill:#84dbff" />
    <polygon
       id="polygon3528"
       points="212.4,245.2 209.6,245.2 212,208.8 214.8,208.8 "
       style="fill:#84dbff" />
    <polygon
       id="polygon3530"
       points="200,245.2 197.2,245.2 200,208.8 202.8,208.8 "
       style="fill:#84dbff" />
    <polygon
       id="polygon3532"
       points="187.6,245.2 184.4,245.2 188.4,208.8 191.2,208.8 "
       style="fill:#84dbff" />
    <polygon
       id="polygon3534"
       points="176.4,240.4 176.4,238.8 246.4,238.8 246.4,240.4 "
       style="fill:#84dbff" />
    <polygon
       id="polygon3536"
       points="177.2,234 177.2,232.4 246.4,232.4 246.4,234 "
       style="fill:#84dbff" />
    <polygon
       id="polygon3538"
       points="178,227.2 178,226 246.4,226 246.4,227.2 "
       style="fill:#84dbff" />
    <polygon
       id="polygon3540"
       points="178.8,221.2 178.8,219.6 246.4,219.6 246.4,221.2 "
       style="fill:#84dbff" />
    <polygon
       id="polygon3542"
       points="179.2,214.8 179.6,213.2 246.8,213.2 246.8,214.8 "
       style="fill:#84dbff" />
  </g>
  <polygon
     transform="translate(-0.46164069,-0.11720297)"
     id="polygon3544"
     points="332.4,245.2 328,208.8 261.2,208.8 261.6,245.2 "
     style="fill:#54c0eb" />
  <g
     transform="translate(-0.46164069,-0.11720297)"
     id="g3546">
    <polygon
       id="polygon3548"
       points="323.6,245.2 320.4,245.2 316.8,208.8 319.6,208.8 "
       style="fill:#84dbff" />
    <polygon
       id="polygon3550"
       points="310.8,245.2 308,245.2 305.2,208.8 308,208.8 "
       style="fill:#84dbff" />
    <polygon
       id="polygon3552"
       points="298.4,245.2 295.6,245.2 293.2,208.8 296,208.8 "
       style="fill:#84dbff" />
    <polygon
       id="polygon3554"
       points="286,245.2 283.2,245.2 281.6,208.8 284.4,208.8 "
       style="fill:#84dbff" />
    <polygon
       id="polygon3556"
       points="273.6,245.2 270.4,245.2 269.6,208.8 272.4,208.8 "
       style="fill:#84dbff" />
    <polygon
       id="polygon3558"
       points="261.6,240.4 261.6,238.8 331.6,238.8 331.6,240.4 "
       style="fill:#84dbff" />
    <polygon
       id="polygon3560"
       points="261.6,234 261.6,232.4 330.8,232.4 330.8,234 "
       style="fill:#84dbff" />
    <polygon
       id="polygon3562"
       points="261.6,227.2 261.6,226 330,226 330,227.2 "
       style="fill:#84dbff" />
    <polygon
       id="polygon3564"
       points="261.6,221.2 261.6,219.6 329.2,219.6 329.2,221.2 "
       style="fill:#84dbff" />
    <polygon
       id="polygon3566"
       points="261.2,214.8 261.2,213.2 328.4,213.2 328.4,214.8 "
       style="fill:#84dbff" />
  </g>
  <polygon
     transform="translate(-0.46164069,-0.11720297)"
     id="polygon3568"
     points="418,245.2 409.2,208.8 342.4,208.8 347.6,245.2 "
     style="fill:#54c0eb" />
  <g
     transform="translate(-0.46164069,-0.11720297)"
     id="g3570">
    <polygon
       id="polygon3572"
       points="409.2,245.2 406.4,245.2 398,208.8 400.8,208.8 "
       style="fill:#84dbff" />
    <polygon
       id="polygon3574"
       points="396.8,245.2 394,245.2 386.4,208.8 389.2,208.8 "
       style="fill:#84dbff" />
    <polygon
       id="polygon3576"
       points="384.4,245.2 381.6,245.2 374.4,208.8 377.2,208.8 "
       style="fill:#84dbff" />
    <polygon
       id="polygon3578"
       points="372,245.2 368.8,245.2 362.8,208.8 365.6,208.8 "
       style="fill:#84dbff" />
    <polygon
       id="polygon3580"
       points="359.6,245.2 356.4,245.2 350.8,208.8 353.6,208.8 "
       style="fill:#84dbff" />
    <polygon
       id="polygon3582"
       points="346.8,240.4 346.8,238.8 416.4,238.8 416.8,240.4 "
       style="fill:#84dbff" />
    <polygon
       id="polygon3584"
       points="346,234 346,232.4 414.8,232.4 415.2,234 "
       style="fill:#84dbff" />
    <polygon
       id="polygon3586"
       points="345.2,227.2 344.8,226 413.2,226 413.6,227.2 "
       style="fill:#84dbff" />
    <polygon
       id="polygon3588"
       points="344.4,221.2 344,219.6 411.6,219.6 412,221.2 "
       style="fill:#84dbff" />
    <polygon
       id="polygon3590"
       points="343.2,214.8 343.2,213.2 410.4,213.2 410.4,214.8 "
       style="fill:#84dbff" />
  </g>
  <g
     transform="translate(-0.46164069,-0.11720297)"
     id="g3592" />
  <g
     transform="translate(-0.46164069,-0.11720297)"
     id="g3594" />
  <g
     transform="translate(-0.46164069,-0.11720297)"
     id="g3596" />
  <g
     transform="translate(-0.46164069,-0.11720297)"
     id="g3598" />
  <g
     transform="translate(-0.46164069,-0.11720297)"
     id="g3600" />
  <g
     transform="translate(-0.46164069,-0.11720297)"
     id="g3602" />
  <g
     transform="translate(-0.46164069,-0.11720297)"
     id="g3604" />
  <g
     transform="translate(-0.46164069,-0.11720297)"
     id="g3606" />
  <g
     transform="translate(-0.46164069,-0.11720297)"
     id="g3608" />
  <g
     transform="translate(-0.46164069,-0.11720297)"
     id="g3610" />
  <g
     transform="translate(-0.46164069,-0.11720297)"
     id="g3612" />
  <g
     transform="translate(-0.46164069,-0.11720297)"
     id="g3614" />
  <g
     transform="translate(-0.46164069,-0.11720297)"
     id="g3616" />
  <g
     transform="translate(-0.46164069,-0.11720297)"
     id="g3618" />
  <g
     transform="translate(-0.46164069,-0.11720297)"
     id="g3620" />
</svg>
