<?xml version="1.0" encoding="iso-8859-1"?>
<!-- Generator: Adobe Illustrator 19.0.0, SVG Export Plug-In . SVG Version: 6.00 Build 0)  -->
<svg version="1.1" id="Layer_1" xmlns="http://www.w3.org/2000/svg" xmlns:xlink="http://www.w3.org/1999/xlink" x="0px" y="0px"
	 viewBox="0 0 508 508" style="enable-background:new 0 0 508 508;" xml:space="preserve">
<circle style="fill:#4CDBC4;" cx="254" cy="254" r="254"/>
<path style="fill:#2C9984;" d="M56,413.2c46.8,58,118,94.8,198,94.8s151.2-36.8,198-94.8H56z"/>
<path style="fill:#324A5E;" d="M372.8,413.6H135.2c-17.6,0-32-14.4-32-32l0,0c0-17.6,14.4-32,32-32h237.6c17.6,0,32,14.4,32,32l0,0
	C404.8,399.2,390.4,413.6,372.8,413.6z"/>
<g>
	<circle style="fill:#2B3B4E;" cx="372.8" cy="381.6" r="20.4"/>
	<circle style="fill:#2B3B4E;" cx="135.2" cy="381.6" r="20.4"/>
</g>
<circle style="fill:#324A5E;" cx="135.2" cy="381.6" r="13.2"/>
<circle style="fill:#2B3B4E;" cx="135.2" cy="381.6" r="6.8"/>
<circle style="fill:#324A5E;" cx="372.8" cy="381.6" r="13.2"/>
<g>
	<circle style="fill:#2B3B4E;" cx="372.8" cy="381.6" r="6.8"/>
	<path style="fill:#2B3B4E;" d="M201.2,384.8h-27.6c-2,0-3.2-1.6-3.2-3.2l0,0c0-2,1.6-3.2,3.2-3.2h27.6c2,0,3.2,1.6,3.2,3.2l0,0
		C204.4,383.2,202.8,384.8,201.2,384.8z"/>
	<path style="fill:#2B3B4E;" d="M245.6,384.8H218c-2,0-3.2-1.6-3.2-3.2l0,0c0-2,1.6-3.2,3.2-3.2h27.6c2,0,3.2,1.6,3.2,3.2l0,0
		C248.8,383.2,247.2,384.8,245.6,384.8z"/>
	<path style="fill:#2B3B4E;" d="M290,384.8h-27.6c-2,0-3.2-1.6-3.2-3.2l0,0c0-2,1.6-3.2,3.2-3.2H290c2,0,3.2,1.6,3.2,3.2l0,0
		C293.2,383.2,291.6,384.8,290,384.8z"/>
	<path style="fill:#2B3B4E;" d="M334.4,384.8h-27.6c-2,0-3.2-1.6-3.2-3.2l0,0c0-2,1.6-3.2,3.2-3.2h27.6c2,0,3.2,1.6,3.2,3.2l0,0
		C337.6,383.2,336.4,384.8,334.4,384.8z"/>
</g>
<rect x="153.2" y="331.2" style="fill:#CED5E0;" width="83.6" height="18"/>
<path style="fill:#E6E9EE;" d="M246,242.8v81.6c0,3.6-3.2,6.8-6.8,6.8h-88.8c-4,0-6.8-3.2-6.8-6.8v-81.6c0-3.6,3.2-6.8,6.8-6.8h9.6
	c3.2,12.8,15.2,22.4,29.2,22.4s25.6-9.6,29.2-22.4h20.4C242.8,236,246,239.2,246,242.8z"/>
<g>
	<path style="fill:#324A5E;" d="M363.2,278.8c1.2,1.2,1.2,3.2,0,4c-0.4,0.4-1.2,0.8-2,0.8s-1.6-0.4-2-0.8l-7.2-7.2v-43.2l7.2-12h6.8
		l-8,13.6v39.2L363.2,278.8z"/>
	<path style="fill:#324A5E;" d="M391.2,232.4v43.2l-7.2,7.2c-0.4,0.4-1.2,0.8-2,0.8s-1.6-0.4-2-0.8c-1.2-1.2-1.2-3.2,0-4l5.2-5.2
		V234l-8-13.6h6.8L391.2,232.4z"/>
</g>
<path style="fill:#2B3B4E;" d="M392.8,216.4c0,2.4-2,4-4,4H354c-2.4,0-4-2-4-4c0-2.4,2-4,4-4h12.8v-19.6c1.6,0.4,3.2,0.4,4.8,0.4
	s3.2,0,4.8-0.4v19.6h12.8C391.2,212.4,392.8,214,392.8,216.4z"/>
<g>
	<path style="fill:#324A5E;" d="M305.2,131.6l-86,90.8c-2.4-12-12-21.2-23.6-23.6l89.6-87.2C286.4,122,294.8,130,305.2,131.6z"/>
	<path style="fill:#324A5E;" d="M368.4,151.2c-8.8,1.2-16,8.4-17.6,17.2l-38-37.2c9.6-1.6,17.2-9.2,19.2-18.8L368.4,151.2z"/>
</g>
<circle style="fill:#FFFFFF;" cx="189.6" cy="228.4" r="30"/>
<circle style="fill:#E6E9EE;" cx="189.6" cy="228.4" r="17.6"/>
<circle style="fill:#FFFFFF;" cx="308.4" cy="108" r="24"/>
<circle style="fill:#E6E9EE;" cx="308.4" cy="108" r="14"/>
<circle style="fill:#FFFFFF;" cx="371.6" cy="172.4" r="21.2"/>
<circle style="fill:#E6E9EE;" cx="371.6" cy="172.4" r="12.4"/>
<g>
</g>
<g>
</g>
<g>
</g>
<g>
</g>
<g>
</g>
<g>
</g>
<g>
</g>
<g>
</g>
<g>
</g>
<g>
</g>
<g>
</g>
<g>
</g>
<g>
</g>
<g>
</g>
<g>
</g>
</svg>
