<?xml version="1.0" encoding="UTF-8" standalone="no"?>
<svg
   xmlns:dc="http://purl.org/dc/elements/1.1/"
   xmlns:cc="http://creativecommons.org/ns#"
   xmlns:rdf="http://www.w3.org/1999/02/22-rdf-syntax-ns#"
   xmlns:svg="http://www.w3.org/2000/svg"
   xmlns="http://www.w3.org/2000/svg"
   xml:space="preserve"
   style="enable-background:new 0 0 508 508;"
   viewBox="0 0 508 508"
   y="0px"
   x="0px"
   id="Layer_1"
   version="1.1"><metadata
     id="metadata3375"><rdf:RDF><cc:Work
         rdf:about=""><dc:format>image/svg+xml</dc:format><dc:type
           rdf:resource="http://purl.org/dc/dcmitype/StillImage" /><dc:title></dc:title></cc:Work></rdf:RDF></metadata><defs
     id="defs3373" /><path
     id="circle3327"
     d="M 244.52539 0.3359375 A 254 254 0 0 0 222.04102 2.3339844 A 254 254 0 0 0 217.92773 2.8339844 A 254 254 0 0 0 196.0918 7.0039062 A 254 254 0 0 0 193.4668 7.5917969 A 254 254 0 0 0 170.87695 14.298828 A 254 254 0 0 0 169.53516 14.744141 A 254 254 0 0 0 146.5957 24.138672 A 254 254 0 0 0 146.38086 24.234375 A 254 254 0 0 0 130.84766 32.1875 L 130.84766 55.0625 L 187.68555 55.0625 L 244.52539 55.0625 L 244.52539 0.3359375 z M 130.84766 32.1875 A 254 254 0 0 0 111.90234 43.742188 A 254 254 0 0 1 130.84766 32.1875 z M 111.90234 43.742188 A 254 254 0 0 0 111.8457 43.783203 A 254 254 0 0 0 96.080078 55.0625 L 111.90234 55.0625 L 111.90234 43.742188 z M 263.47266 0.47460938 L 263.47266 55.0625 L 320.31055 55.0625 L 377.15039 55.0625 L 377.15039 31.9375 A 254 254 0 0 0 377.14648 31.935547 A 254 254 0 0 0 263.47266 0.47460938 z M 396.0957 43.552734 L 396.0957 55.0625 L 411.49023 55.0625 A 254 254 0 0 0 396.09961 43.556641 A 254 254 0 0 0 396.0957 43.552734 z M 411.49023 55.0625 A 254 254 0 0 1 428.93555 70.261719 A 254 254 0 0 0 411.49023 55.0625 z M 88.517578 61.705078 A 254 254 0 0 0 74.970703 74.009766 A 254 254 0 0 1 88.517578 61.705078 z M 74.970703 74.009766 A 254 254 0 0 0 69.732422 79.632812 A 254 254 0 0 0 64.535156 85.210938 L 64.535156 130.84766 L 121.37305 130.84766 L 178.21289 130.84766 L 178.21289 74.009766 L 121.37305 74.009766 L 74.970703 74.009766 z M 197.16016 74.009766 L 197.16016 130.84766 L 253.99805 130.84766 L 310.83789 130.84766 L 310.83789 74.009766 L 253.99805 74.009766 L 197.16016 74.009766 z M 329.78516 74.009766 L 329.78516 130.84766 L 386.62305 130.84766 L 443.46289 130.84766 L 443.46289 85.294922 A 254 254 0 0 0 432.95898 74.009766 L 386.62305 74.009766 L 329.78516 74.009766 z M 443.46289 85.294922 A 254 254 0 0 1 459.22656 104.86719 A 254 254 0 0 0 443.46289 85.294922 z M 64.525391 85.220703 A 254 254 0 0 0 45.603516 108.95117 A 254 254 0 0 1 64.525391 85.220703 z M 45.589844 108.96875 A 254 254 0 0 0 45.587891 108.9707 A 254 254 0 0 0 33.214844 128.76758 A 254 254 0 0 0 31.941406 130.8418 A 254 254 0 0 0 31.939453 130.84766 L 45.589844 130.84766 L 45.589844 108.96875 z M 31.939453 130.84766 A 254 254 0 0 0 22.609375 149.79297 A 254 254 0 0 1 31.939453 130.84766 z M 22.609375 149.79297 A 254 254 0 0 0 13.839844 172.09961 A 254 254 0 0 0 13.195312 173.86719 A 254 254 0 0 0 7.2324219 195.03711 A 254 254 0 0 0 6.09375 199.49805 A 254 254 0 0 0 4.5957031 206.63281 L 55.0625 206.63281 L 111.90234 206.63281 L 111.90234 149.79297 L 55.0625 149.79297 L 22.609375 149.79297 z M 462.4082 109.31641 L 462.4082 130.84766 L 475.8125 130.84766 A 254 254 0 0 0 462.4082 109.31641 z M 475.8125 130.84766 A 254 254 0 0 1 485.29102 149.78711 A 254 254 0 0 0 475.8125 130.84766 z M 130.84766 149.79297 L 130.84766 206.63281 L 187.68555 206.63281 L 244.52539 206.63281 L 244.52539 149.79297 L 187.68555 149.79297 L 130.84766 149.79297 z M 263.47266 149.79297 L 263.47266 206.63281 L 320.31055 206.63281 L 377.15039 206.63281 L 377.15039 149.79297 L 320.31055 149.79297 L 263.47266 149.79297 z M 396.0957 149.79297 L 396.0957 206.63281 L 452.93555 206.63281 L 503.36328 206.63281 A 254 254 0 0 0 503.35938 206.62109 A 254 254 0 0 0 485.30078 149.81055 A 254 254 0 0 0 485.29297 149.79297 L 452.93555 149.79297 L 396.0957 149.79297 z M 503.36328 206.63672 A 254 254 0 0 1 506.08984 225.54102 A 254 254 0 0 0 503.36328 206.63672 z M 1.7324219 225.58008 A 254 254 0 0 0 0.51171875 243.77734 A 254 254 0 0 0 0 254 A 254 254 0 0 0 1.8847656 282.25 A 254 254 0 0 0 1.9042969 282.41797 L 45.589844 282.41797 L 45.589844 225.58008 L 1.7324219 225.58008 z M 64.535156 225.58008 L 64.535156 282.41797 L 121.37305 282.41797 L 178.21484 282.41797 L 178.21484 225.58008 L 121.375 225.58008 L 64.535156 225.58008 z M 197.16016 225.58008 L 197.16016 282.41797 L 253.99805 282.41797 L 310.83789 282.41797 L 310.83789 225.58008 L 253.99805 225.58008 L 197.16016 225.58008 z M 329.7832 225.58008 L 329.7832 282.41797 L 386.62305 282.41797 L 443.46289 282.41797 L 443.46289 225.58008 L 386.62305 225.58008 L 329.7832 225.58008 z M 462.4082 225.58008 L 462.4082 282.41797 L 506.26758 282.41797 A 254 254 0 0 0 507.48828 264.21484 A 254 254 0 0 0 508 254 A 254 254 0 0 0 506.12305 225.80469 A 254 254 0 0 0 506.0957 225.58008 L 462.4082 225.58008 z M 1.9082031 282.44727 A 254 254 0 0 0 4.6367188 301.36523 A 254 254 0 0 1 1.9082031 282.44727 z M 4.6367188 301.36523 A 254 254 0 0 0 22.707031 358.20508 L 55.0625 358.20508 L 111.90234 358.20508 L 111.90234 301.36523 L 55.0625 301.36523 L 4.6367188 301.36523 z M 22.707031 358.20508 A 254 254 0 0 0 32.183594 377.14648 A 254 254 0 0 1 22.707031 358.20508 z M 130.84766 301.36523 L 130.84766 358.20508 L 187.68555 358.20508 L 244.52539 358.20508 L 244.52539 301.36523 L 187.68555 301.36523 L 130.84766 301.36523 z M 263.47266 301.36523 L 263.47266 358.20508 L 320.31055 358.20508 L 377.15039 358.20508 L 377.15039 301.36523 L 320.31055 301.36523 L 263.47266 301.36523 z M 396.0957 301.36523 L 396.0957 358.20508 L 452.93555 358.20508 L 485.39258 358.20508 A 254 254 0 0 0 494.14453 335.94336 A 254 254 0 0 0 494.81055 334.11719 A 254 254 0 0 0 500.75391 313.01562 A 254 254 0 0 0 501.91406 308.46875 A 254 254 0 0 0 503.4043 301.37891 A 254 254 0 0 0 503.40625 301.36523 L 452.93555 301.36523 L 396.0957 301.36523 z M 485.38867 358.21289 A 254 254 0 0 1 476.06445 377.14648 A 254 254 0 0 0 485.38867 358.21289 z M 32.185547 377.15039 A 254 254 0 0 0 32.189453 377.15625 A 254 254 0 0 0 45.587891 398.67773 A 254 254 0 0 0 45.589844 398.68164 L 45.589844 377.15039 L 32.185547 377.15039 z M 64.535156 377.15039 L 64.535156 422.70312 A 254 254 0 0 0 75.039062 433.98828 L 121.37305 433.98828 L 178.21484 433.98828 L 178.21484 377.15039 L 121.375 377.15039 L 64.535156 377.15039 z M 64.535156 422.70312 A 254 254 0 0 1 48.777344 403.13672 A 254 254 0 0 0 64.535156 422.70312 z M 197.16016 377.15039 L 197.16016 433.98828 L 253.99805 433.98828 L 310.83789 433.98828 L 310.83789 377.15039 L 253.99805 377.15039 L 197.16016 377.15039 z M 329.78516 377.15039 L 329.78516 433.98828 L 386.62305 433.98828 L 433.03125 433.98828 A 254 254 0 0 0 443.46289 422.79102 L 443.46289 377.15039 L 386.62305 377.15039 L 329.78516 377.15039 z M 433.03125 433.98828 A 254 254 0 0 1 419.47656 446.29883 A 254 254 0 0 0 433.03125 433.98828 z M 462.4082 377.15039 L 462.4082 399.0332 A 254 254 0 0 0 474.82227 379.17188 A 254 254 0 0 0 476.0625 377.15039 L 462.4082 377.15039 z M 462.4082 399.0332 A 254 254 0 0 1 443.46875 422.7832 A 254 254 0 0 0 462.4082 399.0332 z M 79.058594 437.73242 A 254 254 0 0 0 96.5 452.93164 A 254 254 0 0 1 79.058594 437.73242 z M 96.505859 452.93555 A 254 254 0 0 0 96.554688 452.97266 A 254 254 0 0 0 111.90234 464.44531 L 111.90234 452.93555 L 96.505859 452.93555 z M 130.84766 452.93555 L 130.84766 476.06055 A 254 254 0 0 0 244.52539 507.52539 L 244.52539 452.93555 L 187.68555 452.93555 L 130.84766 452.93555 z M 263.47266 452.93555 L 263.47266 507.66406 A 254 254 0 0 0 285.96484 505.66406 A 254 254 0 0 0 290.06836 505.16602 A 254 254 0 0 0 311.86523 501.00586 A 254 254 0 0 0 314.55273 500.4043 A 254 254 0 0 0 337.08594 493.71289 A 254 254 0 0 0 338.47852 493.25 A 254 254 0 0 0 361.37305 483.875 A 254 254 0 0 0 361.63281 483.75977 A 254 254 0 0 0 377.14648 475.81641 A 254 254 0 0 0 377.15039 475.81445 L 377.15039 452.93555 L 320.31055 452.93555 L 263.47266 452.93555 z M 396.09766 452.93555 L 396.09766 464.25781 A 254 254 0 0 0 396.14844 464.2207 A 254 254 0 0 0 411.92188 452.93555 L 396.09766 452.93555 z M 396.09766 464.25781 A 254 254 0 0 1 377.1582 475.81055 A 254 254 0 0 0 396.09766 464.25781 z "
     style="fill:#8b8d7a;fill-opacity:1" /><g
     id="g3341" /><g
     id="g3343" /><g
     id="g3345" /><g
     id="g3347" /><g
     id="g3349" /><g
     id="g3351" /><g
     id="g3353" /><g
     id="g3355" /><g
     id="g3357" /><g
     id="g3359" /><g
     id="g3361" /><g
     id="g3363" /><g
     id="g3365" /><g
     id="g3367" /><g
     id="g3369" /><g
     transform="matrix(1.0916363,0,0,1.0916363,-323.25735,26.962854)"
     id="g3384" /><g
     transform="matrix(1.0916363,0,0,1.0916363,-323.25735,26.962854)"
     id="g3386" /><g
     transform="matrix(1.0916363,0,0,1.0916363,-323.25735,26.962854)"
     id="g3388" /><g
     transform="matrix(1.0916363,0,0,1.0916363,-323.25735,26.962854)"
     id="g3390" /><g
     transform="matrix(1.0916363,0,0,1.0916363,-323.25735,26.962854)"
     id="g3392" /><g
     transform="matrix(1.0916363,0,0,1.0916363,-323.25735,26.962854)"
     id="g3394" /><g
     transform="matrix(1.0916363,0,0,1.0916363,-323.25735,26.962854)"
     id="g3396" /><g
     transform="matrix(1.0916363,0,0,1.0916363,-323.25735,26.962854)"
     id="g3398" /><g
     transform="matrix(1.0916363,0,0,1.0916363,-323.25735,26.962854)"
     id="g3400" /><g
     transform="matrix(1.0916363,0,0,1.0916363,-323.25735,26.962854)"
     id="g3402" /><g
     transform="matrix(1.0916363,0,0,1.0916363,-323.25735,26.962854)"
     id="g3404" /><g
     transform="matrix(1.0916363,0,0,1.0916363,-323.25735,26.962854)"
     id="g3406" /><g
     transform="matrix(1.0916363,0,0,1.0916363,-323.25735,26.962854)"
     id="g3408" /><g
     transform="matrix(1.0916363,0,0,1.0916363,-323.25735,26.962854)"
     id="g3410" /><g
     transform="matrix(1.0916363,0,0,1.0916363,-323.25735,26.962854)"
     id="g3412" /></svg>