<?xml version="1.0" encoding="iso-8859-1"?>
<!-- Generator: Adobe Illustrator 19.0.0, SVG Export Plug-In . SVG Version: 6.00 Build 0)  -->
<svg version="1.1" id="Layer_1" xmlns="http://www.w3.org/2000/svg" xmlns:xlink="http://www.w3.org/1999/xlink" x="0px" y="0px"
	 viewBox="0 0 508 508" style="enable-background:new 0 0 508 508;" xml:space="preserve">
<circle style="fill:#90DFAA;" cx="254" cy="254" r="254"/>
<path style="fill:#324A5E;" d="M282,110.4h-56c-4.4,0-8-3.6-8-8V85.2c0-4.4,3.6-8,8-8h56c4.4,0,8,3.6,8,8v17.2
	C290,106.8,286.4,110.4,282,110.4z"/>
<path style="fill:#FFFFFF;" d="M341.6,404.4H166.4c-11.2,0-20-8.8-20-20V121.2c0-11.2,8.8-20,20-20h174.8c11.2,0,20,8.8,20,20v263.2
	C361.6,395.2,352.4,404.4,341.6,404.4z"/>
<path style="fill:#324A5E;" d="M146.4,200.4v184c0,10.8,8.8,20,20,20h175.2c10.8,0,20-8.8,20-20v-184H146.4z"/>
<path style="fill:#FF7058;" d="M361.6,166.8v-46c0-10.8-8.8-20-20-20H166.4c-10.8,0-20,8.8-20,20v46H361.6z"/>
<g>
	<polygon style="fill:#FFFFFF;" points="271.2,128.4 259.6,128.4 259.6,116.8 248.4,116.8 248.4,128.4 236.8,128.4 236.8,139.6 
		248.4,139.6 248.4,151.2 259.6,151.2 259.6,139.6 271.2,139.6 	"/>
	<rect x="236.8" y="357.2" style="fill:#FFFFFF;" width="34.4" height="11.2"/>
</g>
<g>
</g>
<g>
</g>
<g>
</g>
<g>
</g>
<g>
</g>
<g>
</g>
<g>
</g>
<g>
</g>
<g>
</g>
<g>
</g>
<g>
</g>
<g>
</g>
<g>
</g>
<g>
</g>
<g>
</g>
</svg>
