<?xml version="1.0" encoding="UTF-8" standalone="no"?>
<svg
   xmlns:dc="http://purl.org/dc/elements/1.1/"
   xmlns:cc="http://creativecommons.org/ns#"
   xmlns:rdf="http://www.w3.org/1999/02/22-rdf-syntax-ns#"
   xmlns:svg="http://www.w3.org/2000/svg"
   xmlns="http://www.w3.org/2000/svg"
   version="1.1"
   id="svg2"
   viewBox="0 0 508.00003 508.00002"
   width="143.3689mm"
   height="143.3689mm">
  <defs
     id="defs8" />
  <metadata
     id="metadata4">
    <rdf:RDF>
      <cc:Work
         rdf:about="">
        <dc:format>image/svg+xml</dc:format>
        <dc:type
           rdf:resource="http://purl.org/dc/dcmitype/StillImage" />
        <dc:title></dc:title>
      </cc:Work>
    </rdf:RDF>
  </metadata>
  <circle
     id="circle3141-7"
     r="254"
     cy="254.00002"
     cx="254.00002"
     style="fill:#7ec0ee;fill-opacity:1" />
  <path
     id="rect3607"
     d="M 38.820312 388.7168 A 254 254 0 0 0 254 508 A 254 254 0 0 0 468.9707 388.7168 L 38.820312 388.7168 z "
     style="fill:#008000;fill-opacity:1;fill-rule:nonzero;stroke:none;stroke-opacity:1" />
  <g
     id="g3151" />
  <g
     id="g3153" />
  <g
     id="g3155" />
  <g
     id="g3157" />
  <g
     id="g3159" />
  <g
     id="g3161" />
  <g
     id="g3163" />
  <g
     id="g3165" />
  <g
     id="g3167" />
  <g
     id="g3169" />
  <g
     id="g3171" />
  <g
     id="g3173" />
  <g
     id="g3175" />
  <g
     id="g3177" />
  <g
     id="g3179" />
  <path
     id="path3476"
     d="m 110.22018,371.30086 c 0,-0.0342 0,-0.0342 0,0 0,-0.0342 0,-0.0342 0,0 l 0,0 z" />
  <path
     style="fill:#784421"
     id="path3478"
     d="m 368.85636,332.83877 c 0,-0.0342 0,-0.0342 0,0 0,-0.0342 0,-0.0342 0,0 3.38466,-5.91462 5.29922,-12.71779 5.29922,-20.00029 0,-21.98322 -17.67547,-39.7951 -39.59031,-40.00057 l 0,0 c 3.69236,-8.99158 3.69236,-17.19683 3.69236,-17.19683 0,-54.97515 -37.33387,-65.36846 -54.32556,-67.24883 -2.76927,-0.30769 -4.71802,2.63252 -3.35048,5.0599 1.60686,2.83765 2.63252,6.76933 1.26498,11.72667 -3.41886,12.23949 -16.64982,10.53006 -23.04307,10.53006 l -47.52205,0 c -22.01707,0 -39.86382,17.84641 -39.86382,39.86382 l 0,0.10291 c 0,6.1194 1.36754,12.00017 3.82912,17.12845 l -1.29917,0 c -22.08578,0 -40.13732,17.91479 -40.13732,40.00057 l 0,0 c 0,7.28216 2.01712,14.11986 5.43597,20.00029 0,0 0,0 0.0684,0 -0.0684,0 -0.0684,0 -0.0684,0 -16.71819,4.78639 -29.02605,20.20542 -29.02605,38.46209 0,22.08579 18.01735,40.00057 40.13732,40.00057 l 207.49015,0 c 22.08613,0 39.9322,-17.8806 39.9322,-40.00057 -0.0342,-18.25701 -12.2053,-33.64185 -28.92349,-38.42824 z" />
  <path
     style="fill:#917c6f"
     id="path3480"
     d="m 211.48658,200.7685 c 3.55527,-0.85471 7.24797,-2.94021 9.98305,-5.09409 12.54685,-9.77792 16.20502,-27.38501 11.21384,-42.05189 -4.13715,-12.10273 -12.44462,-22.15416 -17.64162,-33.70988 -0.92275,-2.05131 -1.74362,-4.10262 -2.32482,-6.15394 -1.53848,-5.09409 -1.50395,-10.59844 -1.05985,-15.86347 l 0,-0.03419 c 0.0684,-0.752147 -0.68377,-1.333352 -1.40207,-1.059844 l 0,0 c -11.35025,3.931683 -17.77803,15.555783 -18.56437,27.043123 -0.75214,10.87195 2.94056,21.40202 7.96593,30.87224 4.92315,9.29928 10.35947,17.50452 11.45316,28.34228 0.51282,4.99153 -0.44445,13.26515 -0.88891,16.54725 -0.068,0.71796 0.58189,1.29916 1.26566,1.16241 z" />
  <path
     style="fill:#917c6f"
     id="path3482"
     d="m 143.82715,240.63232 c 3.55561,-0.85472 7.24797,-2.94056 9.98305,-5.09409 12.54719,-9.77792 16.20536,-27.38501 11.21384,-42.05189 -4.13681,-12.10273 -12.44463,-22.15416 -17.64128,-33.70988 -0.92309,-2.05131 -1.74362,-4.10262 -2.32482,-6.15394 -1.53848,-5.09409 -1.5043,-10.59844 -1.05984,-15.86347 l 0,-0.0342 c 0.0684,-0.75215 -0.68378,-1.33335 -1.40173,-1.05984 l 0,0 c -11.35059,3.93168 -17.77804,15.55577 -18.56437,27.04312 -0.75215,10.87195 2.94021,21.40201 7.96592,30.87224 4.92315,9.29927 10.35913,17.50452 11.45316,28.34194 0.51283,4.99187 -0.44445,13.26549 -0.8889,16.54725 -0.068,0.75249 0.5812,1.33369 1.26497,1.16275 z" />
</svg>
