<?xml version="1.0" encoding="iso-8859-1"?>
<!-- Generator: Adobe Illustrator 19.0.0, SVG Export Plug-In . SVG Version: 6.00 Build 0)  -->
<svg version="1.1" id="Layer_1" xmlns="http://www.w3.org/2000/svg" xmlns:xlink="http://www.w3.org/1999/xlink" x="0px" y="0px"
	 viewBox="0 0 508 508" style="enable-background:new 0 0 508 508;" xml:space="preserve">
<circle style="fill:#90DFAA;" cx="254" cy="254" r="254"/>
<g>
	<path style="fill:#FFFFFF;" d="M214.4,113.6h-69.2c-5.2,0-9.2-4-9.2-9.2l0,0c0-5.2,4-9.2,9.2-9.2h69.2c5.2,0,9.2,4,9.2,9.2l0,0
		C223.6,109.6,219.6,113.6,214.4,113.6z"/>
	<path style="fill:#FFFFFF;" d="M342,113.6h-69.2c-5.2,0-9.2-4-9.2-9.2l0,0c0-5.2,4-9.2,9.2-9.2H342c5.2,0,9.2,4,9.2,9.2l0,0
		C351.6,109.6,347.2,113.6,342,113.6z"/>
	<path style="fill:#FFFFFF;" d="M208,229.6v-116h-56.4v116C116,241.6,90,275.2,90,314.8c0,49.6,40,89.6,89.6,89.6s89.6-40,89.6-89.6
		C269.6,275.2,243.6,241.6,208,229.6z"/>
	<path style="fill:#FFFFFF;" d="M269.6,314.8c0,45.6-34,83.2-78,88.8c-4,0.4-7.6,0.8-11.6,0.8c-49.6,0-89.6-40-89.6-89.6
		c0-39.6,25.6-73.2,61.6-85.2v-116h56.4v116c24.4,8,44,26.4,54,49.6C266.8,290,269.6,302,269.6,314.8z"/>
</g>
<path style="fill:#84DBFF;" d="M102.4,307.6c-0.4,2.4-0.4,4.8-0.4,7.2c0,42.8,34.8,77.6,77.6,77.6s77.6-34.8,77.6-77.6
	c0-2.4,0-4.8-0.4-7.2L102.4,307.6L102.4,307.6z"/>
<g>
	<rect x="151.6" y="206.4" style="fill:#E6E9EE;" width="18" height="6.4"/>
	<rect x="151.6" y="183.2" style="fill:#E6E9EE;" width="18" height="6.4"/>
	<rect x="151.6" y="160.4" style="fill:#E6E9EE;" width="18" height="6.4"/>
	<rect x="151.6" y="137.2" style="fill:#E6E9EE;" width="18" height="6.4"/>
	<path style="fill:#E6E9EE;" d="M269.6,314.8c0,45.6-34,83.2-78,88.8c-4-10.4-2.8-22,4-31.2l66.4-93.2
		C266.8,290,269.6,302,269.6,314.8z"/>
</g>
<path style="fill:#54C0EB;" d="M257.6,314.8c0,39.6-30,72.4-68.4,77.2c0-6.8,2-14,6-19.6l46.4-64.8h15.6
	C257.2,310,257.6,312.4,257.6,314.8z"/>
<path style="fill:#FFFFFF;" d="M335.6,268.8V113.6h-56.4v154.8L202,376.8c-12,16.4,0,39.6,20.4,39.6h170.8
	c20.4,0,32.4-23.2,20.4-39.6L335.6,268.8z"/>
<g>
	<rect x="151.6" y="113.6" style="fill:#E6E9EE;" width="56.4" height="6.8"/>
	<rect x="279.2" y="113.6" style="fill:#E6E9EE;" width="56.4" height="6.8"/>
</g>
<path style="fill:#FF7058;" d="M354,314.8h-93.2l-49.2,68.8c-2.8,4-3.2,9.2-1.2,13.6c2.4,4.4,6.8,7.2,11.6,7.2h170.8
	c5.2,0,9.2-2.8,11.6-7.2c2.4-4.4,2-9.6-1.2-13.6L354,314.8z"/>
<g>
	<rect x="279.2" y="237.6" style="fill:#E6E9EE;" width="18" height="6.4"/>
	<rect x="279.2" y="214.4" style="fill:#E6E9EE;" width="18" height="6.4"/>
	<rect x="279.2" y="191.2" style="fill:#E6E9EE;" width="18" height="6.4"/>
	<rect x="279.2" y="168.4" style="fill:#E6E9EE;" width="18" height="6.4"/>
	<rect x="279.2" y="145.2" style="fill:#E6E9EE;" width="18" height="6.4"/>
</g>
<g>
</g>
<g>
</g>
<g>
</g>
<g>
</g>
<g>
</g>
<g>
</g>
<g>
</g>
<g>
</g>
<g>
</g>
<g>
</g>
<g>
</g>
<g>
</g>
<g>
</g>
<g>
</g>
<g>
</g>
</svg>
