<?xml version="1.0" encoding="UTF-8" standalone="no"?>
<!-- Created with Inkscape (http://www.inkscape.org/) -->

<svg
   xmlns:dc="http://purl.org/dc/elements/1.1/"
   xmlns:cc="http://creativecommons.org/ns#"
   xmlns:rdf="http://www.w3.org/1999/02/22-rdf-syntax-ns#"
   xmlns:svg="http://www.w3.org/2000/svg"
   xmlns="http://www.w3.org/2000/svg"
   xmlns:sodipodi="http://sodipodi.sourceforge.net/DTD/sodipodi-0.dtd"
   xmlns:inkscape="http://www.inkscape.org/namespaces/inkscape"
   height="143.3689mm"
   width="143.3689mm"
   viewBox="0 0 508.00003 508.00002"
   id="svg2"
   version="1.1"
   inkscape:version="0.91 r13725"
   sodipodi:docname="resource-template.svg">
  <defs
     id="defs8" />
  <sodipodi:namedview
     pagecolor="#ffffff"
     bordercolor="#666666"
     borderopacity="1"
     objecttolerance="10"
     gridtolerance="10"
     guidetolerance="10"
     inkscape:pageopacity="0"
     inkscape:pageshadow="2"
     inkscape:window-width="1920"
     inkscape:window-height="1056"
     id="namedview6"
     showgrid="false"
     fit-margin-top="0"
     fit-margin-left="0"
     fit-margin-right="0"
     fit-margin-bottom="0"
     inkscape:zoom="0.89702955"
     inkscape:cx="188.71084"
     inkscape:cy="181.94858"
     inkscape:window-x="0"
     inkscape:window-y="24"
     inkscape:window-maximized="1"
     inkscape:current-layer="svg2" />
  <metadata
     id="metadata4">
    <rdf:RDF>
      <cc:Work
         rdf:about="">
        <dc:format>image/svg+xml</dc:format>
        <dc:type
           rdf:resource="http://purl.org/dc/dcmitype/StillImage" />
        <dc:title></dc:title>
      </cc:Work>
    </rdf:RDF>
  </metadata>
  <circle
     style="fill:#cbcdcd;fill-opacity:1"
     cx="254"
     cy="254"
     r="254"
     id="circle3141" />
  <g
     id="g3151" />
  <g
     id="g3153" />
  <g
     id="g3155" />
  <g
     id="g3157" />
  <g
     id="g3159" />
  <g
     id="g3161" />
  <g
     id="g3163" />
  <g
     id="g3165" />
  <g
     id="g3167" />
  <g
     id="g3169" />
  <g
     id="g3171" />
  <g
     id="g3173" />
  <g
     id="g3175" />
  <g
     id="g3177" />
  <g
     id="g3179" />
  <g
     style="font-style:normal;font-variant:normal;font-weight:normal;font-stretch:normal;font-size:40px;line-height:125%;font-family:Ubuntu;-inkscape-font-specification:Ubuntu;letter-spacing:0px;word-spacing:0px;fill:#000000;fill-opacity:1;stroke:none;stroke-width:1px;stroke-linecap:butt;stroke-linejoin:miter;stroke-opacity:1"
     id="text3229">
    <path
       sodipodi:type="inkscape:offset"
       inkscape:radius="0"
       inkscape:original="M 131.99219 165.75 L 131.99219 339 L 163.49219 339 L 163.49219 263.5 L 232.74219 263.5 L 232.74219 236.75 L 163.49219 236.75 L 163.49219 192.5 L 241.49219 192.5 L 241.49219 165.75 L 131.99219 165.75 z M 318.75781 205 C 311.09115 205 303.59115 206.5 296.25781 209.5 C 288.92448 212.33333 282.42448 216.66667 276.75781 222.5 C 271.09115 228.16667 266.50781 235.33333 263.00781 244 C 259.67448 252.66667 258.00781 262.75 258.00781 274.25 C 258.00781 284.08333 259.34115 293.16667 262.00781 301.5 C 264.67448 309.66667 268.75781 316.83333 274.25781 323 C 279.75781 329 286.75781 333.75 295.25781 337.25 C 303.75781 340.58333 313.75781 342.25 325.25781 342.25 C 329.75781 342.25 334.17448 342 338.50781 341.5 C 342.84115 341 346.84115 340.33333 350.50781 339.5 C 354.34115 338.83333 357.67448 338.08333 360.50781 337.25 C 363.50781 336.25 365.84115 335.33333 367.50781 334.5 L 363.50781 309.75 C 360.00781 311.25 355.17448 312.66667 349.00781 314 C 343.00781 315.33333 336.34115 316 329.00781 316 C 316.50781 316 306.92448 313.16667 300.25781 307.5 C 293.75781 301.66667 290.09115 293.5 289.25781 283 L 375.50781 283 C 375.67448 281.33333 375.75781 279.5 375.75781 277.5 C 375.92448 275.33333 376.00781 273.41667 376.00781 271.75 C 376.00781 249.58333 370.92448 232.91667 360.75781 221.75 C 350.75781 210.58333 336.75781 205 318.75781 205 z M 319.00781 230.25 C 323.50781 230.25 327.34115 231.08333 330.50781 232.75 C 333.84115 234.25 336.59115 236.41667 338.75781 239.25 C 341.09115 241.91667 342.84115 245.16667 344.00781 249 C 345.17448 252.66667 345.75781 256.58333 345.75781 260.75 L 289.50781 260.75 C 290.00781 256.91667 290.92448 253.16667 292.25781 249.5 C 293.59115 245.83333 295.42448 242.58333 297.75781 239.75 C 300.25781 236.91667 303.25781 234.66667 306.75781 233 C 310.25781 231.16667 314.34115 230.25 319.00781 230.25 z "
       style="font-style:normal;font-variant:normal;font-weight:500;font-stretch:normal;font-size:250px;font-family:Ubuntu;-inkscape-font-specification:'Ubuntu Medium';fill:#ffffff"
       id="path3382"
       d="m 131.99219,165.75 0,173.25 31.5,0 0,-75.5 69.25,0 0,-26.75 -69.25,0 0,-44.25 78,0 0,-26.75 -109.5,0 z M 318.75781,205 c -7.66666,0 -15.16666,1.5 -22.5,4.5 -7.33333,2.83333 -13.83333,7.16667 -19.5,13 -5.66666,5.66667 -10.25,12.83333 -13.75,21.5 -3.33333,8.66667 -5,18.75 -5,30.25 0,9.83333 1.33334,18.91667 4,27.25 2.66667,8.16667 6.75,15.33333 12.25,21.5 5.5,6 12.5,10.75 21,14.25 8.5,3.33333 18.5,5 30,5 4.5,0 8.91667,-0.25 13.25,-0.75 4.33334,-0.5 8.33334,-1.16667 12,-2 3.83334,-0.66667 7.16667,-1.41667 10,-2.25 3,-1 5.33334,-1.91667 7,-2.75 l -4,-24.75 c -3.5,1.5 -8.33333,2.91667 -14.5,4.25 -6,1.33333 -12.66666,2 -20,2 -12.5,0 -22.08333,-2.83333 -28.75,-8.5 -6.5,-5.83333 -10.16666,-14 -11,-24.5 l 86.25,0 c 0.16667,-1.66667 0.25,-3.5 0.25,-5.5 0.16667,-2.16667 0.25,-4.08333 0.25,-5.75 0,-22.16667 -5.08333,-38.83333 -15.25,-50 -10,-11.16667 -24,-16.75 -42,-16.75 z m 0.25,25.25 c 4.5,0 8.33334,0.83333 11.5,2.5 3.33334,1.5 6.08334,3.66667 8.25,6.5 2.33334,2.66667 4.08334,5.91667 5.25,9.75 1.16667,3.66667 1.75,7.58333 1.75,11.75 l -56.25,0 c 0.5,-3.83333 1.41667,-7.58333 2.75,-11.25 1.33334,-3.66667 3.16667,-6.91667 5.5,-9.75 2.5,-2.83333 5.5,-5.08333 9,-6.75 3.5,-1.83333 7.58334,-2.75 12.25,-2.75 z" />
  </g>
</svg>
