<?xml version="1.0" encoding="UTF-8" standalone="no"?>
<svg
   xmlns:dc="http://purl.org/dc/elements/1.1/"
   xmlns:cc="http://creativecommons.org/ns#"
   xmlns:rdf="http://www.w3.org/1999/02/22-rdf-syntax-ns#"
   xmlns:svg="http://www.w3.org/2000/svg"
   xmlns="http://www.w3.org/2000/svg"
   version="1.1"
   id="svg39516"
   viewBox="0 0 130.62199 130.622"
   width="36.864429mm"
   height="36.864429mm">
  <defs
     id="defs39522" />
  <metadata
     id="metadata39518">
    <rdf:RDF>
      <cc:Work
         rdf:about="">
        <dc:format>image/svg+xml</dc:format>
        <dc:type
           rdf:resource="http://purl.org/dc/dcmitype/StillImage" />
        <dc:title></dc:title>
      </cc:Work>
    </rdf:RDF>
  </metadata>
  <g
     id="g18987"
     transform="translate(-2781.4163,-140.16923)">
    <g
       id="g18989">
      <circle
         style="fill:#c6c7c8"
         cx="2846.7273"
         cy="205.48022"
         r="65.310997"
         id="circle18991" />
    </g>
  </g>
  <g
     id="g18993"
     transform="translate(-2775.5144,-131.462)">
    <g
       id="g18995">
      <ellipse
         style="fill:#b1b3b4"
         cx="2853.825"
         cy="147.51401"
         rx="9.066"
         ry="6.8340001"
         id="ellipse18997" />
      <path
         style="fill:#9c9e9f"
         d="m 2853.825,154.848 c -5.275,0 -9.566,-3.29 -9.566,-7.334 0,-4.045 4.292,-7.335 9.566,-7.335 5.274,0 9.566,3.29 9.566,7.335 0,4.044 -4.291,7.334 -9.566,7.334 l 0,0 z m 0,-13.669 c -4.724,0 -8.566,2.842 -8.566,6.335 0,3.492 3.843,6.334 8.566,6.334 4.723,0 8.566,-2.842 8.566,-6.334 0,-3.493 -3.843,-6.335 -8.566,-6.335 l 0,0 z"
         id="path18999" />
    </g>
    <g
       id="g19001">
      <circle
         style="fill:#b1b3b4"
         cx="2869.4741"
         cy="154.601"
         r="8.3690004"
         id="circle19003" />
      <path
         style="fill:#9c9e9f"
         d="m 2869.474,163.47 c -4.891,0 -8.869,-3.979 -8.869,-8.869 0,-4.89 3.979,-8.869 8.869,-8.869 4.89,0 8.869,3.979 8.869,8.869 0,4.89 -3.978,8.869 -8.869,8.869 l 0,0 z m 0,-16.739 c -4.339,0 -7.869,3.53 -7.869,7.869 0,4.339 3.53,7.869 7.869,7.869 4.339,0 7.869,-3.53 7.869,-7.869 0,-4.339 -3.53,-7.869 -7.869,-7.869 l 0,0 z"
         id="path19005" />
    </g>
    <g
       id="g19007">
      <ellipse
         style="fill:#b1b3b4"
         cx="2850.1411"
         cy="210.50301"
         rx="15.463"
         ry="9.427"
         id="ellipse19009" />
      <path
         style="fill:#9c9e9f"
         d="m 2850.141,220.43 c -8.802,0 -15.963,-4.453 -15.963,-9.927 0,-5.475 7.161,-9.929 15.963,-9.929 8.802,0 15.963,4.454 15.963,9.929 0,5.474 -7.161,9.927 -15.963,9.927 l 0,0 z m 0,-18.856 c -8.25,0 -14.963,4.005 -14.963,8.929 0,4.922 6.712,8.927 14.963,8.927 8.251,0 14.963,-4.004 14.963,-8.927 0,-4.923 -6.712,-8.929 -14.963,-8.929 l 0,0 z"
         id="path19011" />
    </g>
    <g
       id="g19013">
      <ellipse
         style="fill:#b1b3b4"
         cx="2876.8311"
         cy="220.278"
         rx="14.273"
         ry="11.545"
         id="ellipse19015" />
      <path
         style="fill:#9c9e9f"
         d="m 2876.831,232.323 c -8.146,0 -14.773,-5.403 -14.773,-12.045 0,-6.642 6.627,-12.045 14.773,-12.045 8.146,0 14.773,5.403 14.773,12.045 0,6.642 -6.627,12.045 -14.773,12.045 l 0,0 z m 0,-23.09 c -7.595,0 -13.773,4.955 -13.773,11.045 0,6.09 6.178,11.045 13.773,11.045 7.595,0 13.773,-4.955 13.773,-11.045 0,-6.09 -6.179,-11.045 -13.773,-11.045 l 0,0 z"
         id="path19017" />
    </g>
    <g
       id="g19019">
      <ellipse
         style="fill:#b1b3b4"
         transform="matrix(0.7641,0.6451,-0.6451,0.7641,771.7275,-1769.3521)"
         cx="2805.073"
         cy="170.496"
         rx="15.451"
         ry="27.093"
         id="ellipse19021" />
      <path
         style="fill:#9c9e9f"
         d="m 2794.432,193.977 c -2.866,0 -5.274,-0.807 -7.159,-2.397 -6.72,-5.675 -4.203,-19.749 5.611,-31.373 6.87,-8.138 15.618,-13.192 22.83,-13.192 2.865,0 5.274,0.807 7.158,2.397 3.297,2.783 4.504,7.607 3.399,13.585 -1.087,5.877 -4.287,12.195 -9.011,17.79 -6.868,8.135 -15.616,13.19 -22.828,13.19 l 0,0 z m 21.282,-45.963 c -6.821,0 -15.482,5.039 -22.065,12.837 -9.459,11.203 -12.03,24.646 -5.73,29.965 1.699,1.434 3.891,2.161 6.514,2.161 6.82,0 15.481,-5.039 22.064,-12.836 4.613,-5.464 7.735,-11.617 8.791,-17.326 1.037,-5.609 -0.05,-10.098 -3.061,-12.64 -1.699,-1.434 -3.891,-2.161 -6.513,-2.161 l 0,0 z"
         id="path19023" />
    </g>
    <g
       id="g19025">
      <circle
         style="fill:#b1b3b4"
         cx="2805.073"
         cy="231.086"
         r="10.137"
         id="circle19027" />
      <path
         style="fill:#9c9e9f"
         d="m 2805.078,241.725 c -4.278,0 -8.123,-2.544 -9.794,-6.481 -1.111,-2.614 -1.138,-5.504 -0.074,-8.139 1.064,-2.635 3.09,-4.697 5.704,-5.808 1.327,-0.563 2.724,-0.849 4.154,-0.849 4.277,0 8.122,2.543 9.794,6.48 2.293,5.398 -0.233,11.655 -5.63,13.948 -1.327,0.563 -2.724,0.849 -4.154,0.849 l 0,0 z m -0.011,-20.277 c -1.294,0 -2.561,0.259 -3.763,0.77 -2.369,1.006 -4.204,2.875 -5.167,5.262 -0.964,2.387 -0.94,5.005 0.066,7.374 1.516,3.567 4.999,5.873 8.875,5.873 1.294,0 2.561,-0.259 3.762,-0.769 4.89,-2.078 7.179,-7.747 5.102,-12.638 -1.516,-3.568 -4.999,-5.872 -8.875,-5.872 l 0,0 z"
         id="path19029" />
    </g>
    <g
       id="g19031">
      <circle
         style="fill:#b1b3b4"
         cx="2818.6321"
         cy="243.8"
         r="8.4040003"
         id="circle19033" />
      <path
         style="fill:#9c9e9f"
         d="m 2818.636,252.706 c -3.581,0 -6.798,-2.129 -8.198,-5.425 -1.919,-4.519 0.195,-9.756 4.713,-11.676 1.111,-0.472 2.281,-0.711 3.479,-0.711 3.58,0 6.798,2.129 8.197,5.424 0.931,2.189 0.953,4.61 0.063,6.815 -0.891,2.206 -2.586,3.932 -4.775,4.862 -1.112,0.471 -2.282,0.711 -3.479,0.711 l 0,0 z m -0.01,-16.812 c -1.063,0 -2.101,0.212 -3.087,0.631 -4.011,1.704 -5.888,6.354 -4.184,10.365 1.242,2.925 4.099,4.815 7.277,4.815 1.062,0 2.101,-0.212 3.087,-0.631 1.943,-0.826 3.448,-2.358 4.238,-4.316 0.791,-1.958 0.771,-4.106 -0.055,-6.05 -1.241,-2.925 -4.098,-4.814 -7.276,-4.814 l 0,0 z"
         id="path19035" />
    </g>
    <g
       id="g19037">
      <circle
         style="fill:#b1b3b4"
         cx="2889.241"
         cy="203.517"
         r="8.4029999"
         id="circle19039" />
      <path
         style="fill:#9c9e9f"
         d="m 2889.244,212.422 c -3.58,0 -6.798,-2.129 -8.198,-5.425 -0.93,-2.189 -0.951,-4.608 -0.062,-6.813 0.891,-2.206 2.586,-3.932 4.776,-4.862 1.11,-0.472 2.281,-0.711 3.478,-0.711 3.58,0 6.798,2.128 8.197,5.423 1.919,4.52 -0.195,9.758 -4.714,11.677 -1.11,0.472 -2.28,0.711 -3.477,0.711 l 0,0 z m -0.01,-16.811 c -1.063,0 -2.101,0.212 -3.087,0.631 -1.944,0.826 -3.449,2.358 -4.239,4.315 -0.79,1.957 -0.771,4.105 0.055,6.049 1.243,2.926 4.1,4.816 7.277,4.816 1.062,0 2.101,-0.212 3.087,-0.631 4.011,-1.704 5.888,-6.354 4.185,-10.366 -1.243,-2.925 -4.099,-4.814 -7.278,-4.814 l 0,0 z"
         id="path19041" />
    </g>
    <g
       id="g19043">
      <circle
         style="fill:#b1b3b4"
         cx="2829.0549"
         cy="249.33299"
         r="3.5339999"
         id="circle19045" />
      <path
         style="fill:#9c9e9f"
         d="m 2829.056,253.367 c -1.623,0 -3.081,-0.964 -3.715,-2.457 -0.421,-0.992 -0.431,-2.088 -0.027,-3.088 0.403,-0.999 1.172,-1.781 2.164,-2.203 0.503,-0.213 1.033,-0.322 1.575,-0.322 1.621,0 3.079,0.965 3.713,2.458 0.421,0.991 0.432,2.087 0.028,3.086 -0.404,0.999 -1.171,1.781 -2.163,2.203 -0.503,0.215 -1.033,0.323 -1.575,0.323 l 0,0 z m 0,-7.069 c -0.407,0 -0.806,0.082 -1.185,0.242 -1.54,0.654 -2.261,2.439 -1.607,3.979 0.477,1.122 1.574,1.848 2.795,1.848 0.407,0 0.806,-0.082 1.185,-0.242 0.746,-0.317 1.323,-0.905 1.626,-1.657 0.303,-0.752 0.295,-1.576 -0.022,-2.321 -0.476,-1.124 -1.573,-1.849 -2.792,-1.849 l 0,0 z"
         id="path19047" />
    </g>
  </g>
</svg>
