<?xml version="1.0" encoding="iso-8859-1"?>
<!-- Generator: Adobe Illustrator 19.0.0, SVG Export Plug-In . SVG Version: 6.00 Build 0)  -->
<svg version="1.1" id="Layer_1" xmlns="http://www.w3.org/2000/svg" xmlns:xlink="http://www.w3.org/1999/xlink" x="0px" y="0px"
	 viewBox="0 0 508 508" style="enable-background:new 0 0 508 508;" xml:space="preserve">
<circle style="fill:#84DBFF;" cx="254" cy="254" r="254"/>
<g>
	<polygon style="fill:#324A5E;" points="152.8,364.4 134.8,364.4 150.4,296.8 192.4,279.2 197.2,326 168,340.8 	"/>
	<polygon style="fill:#324A5E;" points="355.2,364.4 373.2,364.4 357.6,296.8 315.6,279.2 310.8,326 340,340.8 	"/>
</g>
<path style="fill:#FFFFFF;" d="M310.8,342.8c10.4-29.2,16.4-66.4,16.4-107.2C327.2,142,254,66,254,66s-73.2,76-73.2,169.6
	c0,40.8,6,78,16.4,107.2H310.8z"/>
<g>
	<path style="fill:#324A5E;" d="M302.8,138C281.6,94.4,254,66,254,66s-27.6,28.4-48.8,72H302.8z"/>
	<path style="fill:#324A5E;" d="M245.2,354.8c0-2,0-4.4,0-6.8c0-27.6-10-50.4-22.4-50.4S200.4,320,200.4,348c0,2.4,0,4.4,0,6.8
		H245.2z"/>
	<path style="fill:#324A5E;" d="M307.2,354.8c0-2,0-4.4,0-6.8c0-27.6-10-50.4-22.4-50.4S262.4,320,262.4,348c0,2.4,0,4.4,0,6.8
		H307.2z"/>
</g>
<path style="fill:#FF7058;" d="M223.2,442c3.6-18,22-31.6,22-52.8s-10-24-22-24c-12.4,0-22,2.8-22,24S219.2,424,223.2,442z"/>
<path style="fill:#FFD05B;" d="M223.2,424.4c2.8-14,17.2-24.4,17.2-40.4c0-16.4-7.6-18.4-17.2-18.4c-9.2,0-17.2,2-17.2,18.4
	C206,400,220,410.4,223.2,424.4z"/>
<path style="fill:#FF7058;" d="M284.8,442c3.6-18,22-31.6,22-52.8s-10-24-22-24s-22,2.8-22,24S281.2,424,284.8,442z"/>
<path style="fill:#FFD05B;" d="M284.8,424.4c2.8-14,17.2-24.4,17.2-40.4c0-16.4-7.6-18.4-17.2-18.4c-9.2,0-17.2,2-17.2,18.4
	C268,400,282,410.4,284.8,424.4z"/>
<circle style="fill:#4CDBC4;" cx="254" cy="200.8" r="34.8"/>
<g>
	<path style="fill:#2C9984;" d="M274.4,172.4c-2.8-2-5.6-3.6-8.8-4.8l-44.4,44.8c1.2,3.2,2.8,6,4.8,8.8L274.4,172.4z"/>
	<path style="fill:#2C9984;" d="M279.6,177.2l-49.2,49.6c1.2,1.2,2.8,2.4,4,3.2l48.4-48.4C282,180,280.8,178.4,279.6,177.2z"/>
</g>
<g>
</g>
<g>
</g>
<g>
</g>
<g>
</g>
<g>
</g>
<g>
</g>
<g>
</g>
<g>
</g>
<g>
</g>
<g>
</g>
<g>
</g>
<g>
</g>
<g>
</g>
<g>
</g>
<g>
</g>
</svg>
