<?xml version="1.0" encoding="UTF-8" standalone="no"?>
<!-- Created with Inkscape (http://www.inkscape.org/) -->

<svg
   xmlns:dc="http://purl.org/dc/elements/1.1/"
   xmlns:cc="http://creativecommons.org/ns#"
   xmlns:rdf="http://www.w3.org/1999/02/22-rdf-syntax-ns#"
   xmlns:svg="http://www.w3.org/2000/svg"
   xmlns="http://www.w3.org/2000/svg"
   xmlns:sodipodi="http://sodipodi.sourceforge.net/DTD/sodipodi-0.dtd"
   xmlns:inkscape="http://www.inkscape.org/namespaces/inkscape"
   height="143.3689mm"
   width="143.3689mm"
   viewBox="0 0 508.00003 508.00002"
   id="svg2"
   version="1.1"
   inkscape:version="0.91 r13725"
   sodipodi:docname="silicon.svg">
  <defs
     id="defs8" />
  <sodipodi:namedview
     pagecolor="#ffffff"
     bordercolor="#666666"
     borderopacity="1"
     objecttolerance="10"
     gridtolerance="10"
     guidetolerance="10"
     inkscape:pageopacity="0"
     inkscape:pageshadow="2"
     inkscape:window-width="1920"
     inkscape:window-height="1056"
     id="namedview6"
     showgrid="false"
     fit-margin-top="0"
     fit-margin-left="0"
     fit-margin-right="0"
     fit-margin-bottom="0"
     inkscape:zoom="0.89702955"
     inkscape:cx="188.71084"
     inkscape:cy="181.94858"
     inkscape:window-x="0"
     inkscape:window-y="24"
     inkscape:window-maximized="1"
     inkscape:current-layer="svg2" />
  <metadata
     id="metadata4">
    <rdf:RDF>
      <cc:Work
         rdf:about="">
        <dc:format>image/svg+xml</dc:format>
        <dc:type
           rdf:resource="http://purl.org/dc/dcmitype/StillImage" />
        <dc:title></dc:title>
      </cc:Work>
    </rdf:RDF>
  </metadata>
  <circle
     style="fill:#686969;fill-opacity:1"
     cx="254"
     cy="254"
     r="254"
     id="circle3141" />
  <g
     id="g3151" />
  <g
     id="g3153" />
  <g
     id="g3155" />
  <g
     id="g3157" />
  <g
     id="g3159" />
  <g
     id="g3161" />
  <g
     id="g3163" />
  <g
     id="g3165" />
  <g
     id="g3167" />
  <g
     id="g3169" />
  <g
     id="g3171" />
  <g
     id="g3173" />
  <g
     id="g3175" />
  <g
     id="g3177" />
  <g
     id="g3179" />
  <g
     style="font-style:normal;font-variant:normal;font-weight:normal;font-stretch:normal;font-size:40px;line-height:125%;font-family:Ubuntu;-inkscape-font-specification:Ubuntu;letter-spacing:0px;word-spacing:0px;fill:#000000;fill-opacity:1;stroke:none;stroke-width:1px;stroke-linecap:butt;stroke-linejoin:miter;stroke-opacity:1"
     id="text3229">
    <path
       sodipodi:type="inkscape:offset"
       inkscape:radius="0"
       inkscape:original="M 325.63281 158.25 C 320.46615 158.25 316.04948 159.91667 312.38281 163.25 C 308.71615 166.58333 306.88281 171.16667 306.88281 177 C 306.88281 182.66667 308.71615 187.16667 312.38281 190.5 C 316.04948 193.83333 320.46615 195.5 325.63281 195.5 C 330.63281 195.5 334.96615 193.83333 338.63281 190.5 C 342.29948 187.16667 344.13281 182.66667 344.13281 177 C 344.13281 171.16667 342.29948 166.58333 338.63281 163.25 C 334.96615 159.91667 330.63281 158.25 325.63281 158.25 z M 227.86719 168.75 C 209.20052 168.75 194.45052 173.25 183.61719 182.25 C 172.78385 191.08333 167.36719 203.33333 167.36719 219 C 167.36719 226.5 168.61719 232.91667 171.11719 238.25 C 173.78385 243.58333 177.20052 248.16667 181.36719 252 C 185.70052 255.83333 190.61719 259.08333 196.11719 261.75 C 201.78385 264.25 207.61719 266.58333 213.61719 268.75 C 219.61719 270.75 224.95052 272.83333 229.61719 275 C 234.28385 277 238.20052 279.25 241.36719 281.75 C 244.70052 284.08333 247.20052 286.75 248.86719 289.75 C 250.70052 292.75 251.61719 296.33333 251.61719 300.5 C 251.61719 307.5 249.03385 312.91667 243.86719 316.75 C 238.70052 320.58333 230.45052 322.5 219.11719 322.5 C 208.28385 322.5 199.03385 321.25 191.36719 318.75 C 183.70052 316.25 177.61719 313.75 173.11719 311.25 L 163.86719 337 C 165.86719 338.16667 168.53385 339.5 171.86719 341 C 175.20052 342.33333 179.11719 343.66667 183.61719 345 C 188.28385 346.33333 193.53385 347.41667 199.36719 348.25 C 205.36719 349.25 211.95052 349.75 219.11719 349.75 C 240.45052 349.75 256.61719 345.5 267.61719 337 C 278.78385 328.33333 284.36719 316.16667 284.36719 300.5 C 284.36719 292.33333 283.20052 285.41667 280.86719 279.75 C 278.53385 273.91667 275.11719 268.91667 270.61719 264.75 C 266.28385 260.41667 260.86719 256.75 254.36719 253.75 C 248.03385 250.58333 240.78385 247.5 232.61719 244.5 C 227.95052 242.83333 223.61719 241.08333 219.61719 239.25 C 215.78385 237.41667 212.36719 235.41667 209.36719 233.25 C 206.53385 231.08333 204.28385 228.66667 202.61719 226 C 201.11719 223.16667 200.36719 219.83333 200.36719 216 C 200.36719 209.66667 202.70052 204.75 207.36719 201.25 C 212.20052 197.75 218.86719 196 227.36719 196 C 234.53385 196 241.45052 196.83333 248.11719 198.5 C 254.95052 200.16667 261.20052 202.58333 266.86719 205.75 L 276.61719 180.25 C 271.78385 177.41667 265.11719 174.83333 256.61719 172.5 C 248.28385 170 238.70052 168.75 227.86719 168.75 z M 310.63281 215.25 L 310.63281 346 L 340.88281 346 L 340.88281 215.25 L 310.63281 215.25 z "
       style="font-style:normal;font-variant:normal;font-weight:500;font-stretch:normal;font-size:250px;font-family:Ubuntu;-inkscape-font-specification:'Ubuntu Medium';fill:#ffffff"
       id="path3409"
       d="m 325.63281,158.25 c -5.16666,0 -9.58333,1.66667 -13.25,5 -3.66666,3.33333 -5.5,7.91667 -5.5,13.75 0,5.66667 1.83334,10.16667 5.5,13.5 3.66667,3.33333 8.08334,5 13.25,5 5,0 9.33334,-1.66667 13,-5 3.66667,-3.33333 5.5,-7.83333 5.5,-13.5 0,-5.83333 -1.83333,-10.41667 -5.5,-13.75 -3.66666,-3.33333 -8,-5 -13,-5 z m -97.76562,10.5 c -18.66667,0 -33.41667,4.5 -44.25,13.5 -10.83334,8.83333 -16.25,21.08333 -16.25,36.75 0,7.5 1.25,13.91667 3.75,19.25 2.66666,5.33333 6.08333,9.91667 10.25,13.75 4.33333,3.83333 9.25,7.08333 14.75,9.75 5.66666,2.5 11.5,4.83333 17.5,7 6,2 11.33333,4.08333 16,6.25 4.66666,2 8.58333,4.25 11.75,6.75 3.33333,2.33333 5.83333,5 7.5,8 1.83333,3 2.75,6.58333 2.75,10.75 0,7 -2.58334,12.41667 -7.75,16.25 -5.16667,3.83333 -13.41667,5.75 -24.75,5.75 -10.83334,0 -20.08334,-1.25 -27.75,-3.75 -7.66667,-2.5 -13.75,-5 -18.25,-7.5 l -9.25,25.75 c 2,1.16667 4.66666,2.5 8,4 3.33333,1.33333 7.25,2.66667 11.75,4 4.66666,1.33333 9.91666,2.41667 15.75,3.25 6,1 12.58333,1.5 19.75,1.5 21.33333,0 37.5,-4.25 48.5,-12.75 11.16666,-8.66667 16.75,-20.83333 16.75,-36.5 0,-8.16667 -1.16667,-15.08333 -3.5,-20.75 -2.33334,-5.83333 -5.75,-10.83333 -10.25,-15 -4.33334,-4.33333 -9.75,-8 -16.25,-11 -6.33334,-3.16667 -13.58334,-6.25 -21.75,-9.25 -4.66667,-1.66667 -9,-3.41667 -13,-5.25 -3.83334,-1.83333 -7.25,-3.83333 -10.25,-6 -2.83334,-2.16667 -5.08334,-4.58333 -6.75,-7.25 -1.5,-2.83333 -2.25,-6.16667 -2.25,-10 0,-6.33333 2.33333,-11.25 7,-14.75 4.83333,-3.5 11.5,-5.25 20,-5.25 7.16666,0 14.08333,0.83333 20.75,2.5 6.83333,1.66667 13.08333,4.08333 18.75,7.25 l 9.75,-25.5 c -4.83334,-2.83333 -11.5,-5.41667 -20,-7.75 -8.33334,-2.5 -17.91667,-3.75 -28.75,-3.75 z m 82.76562,46.5 0,130.75 30.25,0 0,-130.75 -30.25,0 z" />
  </g>
</svg>
