<?xml version="1.0" encoding="iso-8859-1"?>
<!-- Generator: Adobe Illustrator 19.0.0, SVG Export Plug-In . SVG Version: 6.00 Build 0)  -->
<svg version="1.1" id="Layer_1" xmlns="http://www.w3.org/2000/svg" xmlns:xlink="http://www.w3.org/1999/xlink" x="0px" y="0px"
	 viewBox="0 0 508 508" style="enable-background:new 0 0 508 508;" xml:space="preserve">
<path style="fill:#FD8469;" d="M508,254c0,140.4-113.6,254-254,254S0,394.4,0,254S113.6,0,254,0c110.8,0,204.8,70.8,239.6,169.6
	c7.6,21.2,12,43.6,13.6,66.8C508,242.4,508,248,508,254z"/>
<rect x="240" y="227.2" style="fill:#FFFFFF;" width="27.6" height="168.8"/>
<rect x="240" y="227.2" style="fill:#E6E9EE;" width="27.6" height="40.8"/>
<path style="fill:#F1543F;" d="M62.8,420.8C109.2,474,177.6,508,254,508s144.8-33.6,191.2-87.2H62.8z"/>
<path style="fill:#E6E9EE;" d="M301.2,420.8h-94.4v-5.6c0-10.4,8.4-19.2,19.2-19.2h56c10.4,0,19.2,8.4,19.2,19.2V420.8z"/>
<path style="fill:#FFFFFF;" d="M424.8,252H83.2c-3.2,0-4.8-4.4-3.2-9.6L115.2,108c0.8-3.2,3.6-6,6-6H386c2.4,0,5.2,2.8,6,6
	l35.2,134.4C429.2,247.6,428,252,424.8,252z"/>
<polygon style="fill:#54C0EB;" points="176.4,131.2 180,106 124.4,106 118,131.2 "/>
<g>
	<polygon style="fill:#84DBFF;" points="169.2,131.2 166.8,131.2 170.8,106 173.2,106 	"/>
	<polygon style="fill:#84DBFF;" points="158.8,131.2 156.4,131.2 160.8,106 163.2,106 	"/>
	<polygon style="fill:#84DBFF;" points="148.4,131.2 146,131.2 150.8,106 153.2,106 	"/>
	<polygon style="fill:#84DBFF;" points="138,131.2 135.6,131.2 141.2,106 143.6,106 	"/>
	<polygon style="fill:#84DBFF;" points="128,131.2 125.2,131.2 131.2,106 133.6,106 	"/>
	<polygon style="fill:#84DBFF;" points="118.8,127.6 119.2,126.8 177.2,126.8 176.8,127.6 	"/>
	<polygon style="fill:#84DBFF;" points="120,123.2 120.4,122 177.6,122 177.6,123.2 	"/>
	<polygon style="fill:#84DBFF;" points="121.2,118.8 121.2,117.6 178.4,117.6 178,118.8 	"/>
	<polygon style="fill:#84DBFF;" points="122.4,114.4 122.4,113.2 178.8,113.2 178.8,114.4 	"/>
	<polygon style="fill:#84DBFF;" points="123.2,110 123.6,108.8 179.6,108.8 179.6,110 	"/>
</g>
<polygon style="fill:#54C0EB;" points="247.6,131.2 248,106 192.4,106 189.2,131.2 "/>
<g>
	<polygon style="fill:#84DBFF;" points="240.4,131.2 238,131.2 238.8,106 240.8,106 	"/>
	<polygon style="fill:#84DBFF;" points="230,131.2 227.6,131.2 228.8,106 231.2,106 	"/>
	<polygon style="fill:#84DBFF;" points="219.6,131.2 217.2,131.2 218.8,106 221.2,106 	"/>
	<polygon style="fill:#84DBFF;" points="209.2,131.2 206.8,131.2 209.2,106 211.2,106 	"/>
	<polygon style="fill:#84DBFF;" points="198.8,131.2 196.4,131.2 199.2,106 201.6,106 	"/>
	<polygon style="fill:#84DBFF;" points="189.6,127.6 189.6,126.8 247.6,126.8 247.6,127.6 	"/>
	<polygon style="fill:#84DBFF;" points="190,123.2 190.4,122 247.6,122 247.6,123.2 	"/>
	<polygon style="fill:#84DBFF;" points="190.8,118.8 190.8,117.6 247.6,117.6 247.6,118.8 	"/>
	<polygon style="fill:#84DBFF;" points="191.2,114.4 191.2,113.2 247.6,113.2 247.6,114.4 	"/>
	<polygon style="fill:#84DBFF;" points="191.6,110 192,108.8 248,108.8 248,110 	"/>
</g>
<polygon style="fill:#54C0EB;" points="318.8,131.2 316,106 260,106 260.4,131.2 "/>
<g>
	<polygon style="fill:#84DBFF;" points="311.6,131.2 309.2,131.2 306.4,106 308.8,106 	"/>
	<polygon style="fill:#84DBFF;" points="301.2,131.2 298.8,131.2 296.8,106 299.2,106 	"/>
	<polygon style="fill:#84DBFF;" points="290.8,131.2 288.4,131.2 286.8,106 289.2,106 	"/>
	<polygon style="fill:#84DBFF;" points="280.4,131.2 278,131.2 276.8,106 279.2,106 	"/>
	<polygon style="fill:#84DBFF;" points="270,131.2 267.6,131.2 267.2,106 269.2,106 	"/>
	<polygon style="fill:#84DBFF;" points="260.4,127.6 260.4,126.8 318.4,126.8 318.4,127.6 	"/>
	<polygon style="fill:#84DBFF;" points="260.4,123.2 260.4,122 317.6,122 318,123.2 	"/>
	<polygon style="fill:#84DBFF;" points="260.4,118.8 260.4,117.6 317.2,117.6 317.2,118.8 	"/>
	<polygon style="fill:#84DBFF;" points="260,114.4 260,113.2 316.8,113.2 316.8,114.4 	"/>
	<polygon style="fill:#84DBFF;" points="260,110 260,108.8 316,108.8 316.4,110 	"/>
</g>
<polygon style="fill:#54C0EB;" points="390,131.2 383.6,106 328,106 331.6,131.2 "/>
<g>
	<polygon style="fill:#84DBFF;" points="382.8,131.2 380.4,131.2 374.4,106 376.8,106 	"/>
	<polygon style="fill:#84DBFF;" points="372.4,131.2 370,131.2 364.4,106 366.8,106 	"/>
	<polygon style="fill:#84DBFF;" points="362,131.2 359.6,131.2 354.8,106 357.2,106 	"/>
	<polygon style="fill:#84DBFF;" points="351.6,131.2 349.2,131.2 344.8,106 347.2,106 	"/>
	<polygon style="fill:#84DBFF;" points="341.2,131.2 338.8,131.2 334.8,106 337.2,106 	"/>
	<polygon style="fill:#84DBFF;" points="331.2,127.6 330.8,126.8 388.8,126.8 389.2,127.6 	"/>
	<polygon style="fill:#84DBFF;" points="330.4,123.2 330.4,122 387.6,122 388,123.2 	"/>
	<polygon style="fill:#84DBFF;" points="330,118.8 329.6,117.6 386.4,117.6 386.8,118.8 	"/>
	<polygon style="fill:#84DBFF;" points="329.2,114.4 329.2,113.2 385.6,113.2 385.6,114.4 	"/>
	<polygon style="fill:#84DBFF;" points="328.4,110 328.4,108.8 384.4,108.8 384.8,110 	"/>
</g>
<polygon style="fill:#54C0EB;" points="171.6,164.4 175.6,136.4 116.8,136.4 110,164.4 "/>
<g>
	<polygon style="fill:#84DBFF;" points="164,164.4 161.6,164.4 166,136.4 168.4,136.4 	"/>
	<polygon style="fill:#84DBFF;" points="153.2,164.4 150.4,164.4 155.6,136.4 158,136.4 	"/>
	<polygon style="fill:#84DBFF;" points="142,164.4 139.6,164.4 145.2,136.4 147.6,136.4 	"/>
	<polygon style="fill:#84DBFF;" points="131.2,164.4 128.4,164.4 134.4,136.4 137.2,136.4 	"/>
	<polygon style="fill:#84DBFF;" points="120,164.4 117.6,164.4 124,136.4 126.8,136.4 	"/>
	<polygon style="fill:#84DBFF;" points="110.8,160.8 111.2,159.6 172.4,159.6 172.4,160.8 	"/>
	<polygon style="fill:#84DBFF;" points="112,155.6 112.4,154.4 173.2,154.4 172.8,155.6 	"/>
	<polygon style="fill:#84DBFF;" points="113.2,150.8 113.6,149.6 174,149.6 173.6,150.8 	"/>
	<polygon style="fill:#84DBFF;" points="114.4,145.6 114.8,144.4 174.4,144.4 174.4,145.6 	"/>
	<polygon style="fill:#84DBFF;" points="115.6,140.8 116,139.6 175.2,139.6 175.2,140.8 	"/>
</g>
<polygon style="fill:#54C0EB;" points="247.2,164.4 247.6,136.4 188.8,136.4 185.2,164.4 "/>
<g>
	<polygon style="fill:#84DBFF;" points="239.6,164.4 236.8,164.4 237.6,136.4 240.4,136.4 	"/>
	<polygon style="fill:#84DBFF;" points="228.4,164.4 226,164.4 227.2,136.4 229.6,136.4 	"/>
	<polygon style="fill:#84DBFF;" points="217.6,164.4 214.8,164.4 216.8,136.4 219.2,136.4 	"/>
	<polygon style="fill:#84DBFF;" points="206.4,164.4 204,164.4 206.4,136.4 208.8,136.4 	"/>
	<polygon style="fill:#84DBFF;" points="195.6,164.4 193.2,164.4 196,136.4 198.4,136.4 	"/>
	<polygon style="fill:#84DBFF;" points="185.6,160.8 186,159.6 247.2,159.6 247.2,160.8 	"/>
	<polygon style="fill:#84DBFF;" points="186.4,155.6 186.4,154.4 247.2,154.4 247.2,155.6 	"/>
	<polygon style="fill:#84DBFF;" points="186.8,150.8 187.2,149.6 247.2,149.6 247.2,150.8 	"/>
	<polygon style="fill:#84DBFF;" points="187.6,145.6 187.6,144.4 247.6,144.4 247.6,145.6 	"/>
	<polygon style="fill:#84DBFF;" points="188,140.8 188.4,139.6 247.6,139.6 247.6,140.8 	"/>
</g>
<polygon style="fill:#54C0EB;" points="322.8,164.4 319.2,136.4 260.4,136.4 260.8,164.4 "/>
<g>
	<polygon style="fill:#84DBFF;" points="314.8,164.4 312.4,164.4 309.6,136.4 312,136.4 	"/>
	<polygon style="fill:#84DBFF;" points="304,164.4 301.6,164.4 299.2,136.4 301.6,136.4 	"/>
	<polygon style="fill:#84DBFF;" points="293.2,164.4 290.4,164.4 288.8,136.4 291.2,136.4 	"/>
	<polygon style="fill:#84DBFF;" points="282,164.4 279.6,164.4 278.4,136.4 280.8,136.4 	"/>
	<polygon style="fill:#84DBFF;" points="271.2,164.4 268.4,164.4 268,136.4 270.4,136.4 	"/>
	<polygon style="fill:#84DBFF;" points="260.8,160.8 260.8,159.6 322,159.6 322.4,160.8 	"/>
	<polygon style="fill:#84DBFF;" points="260.8,155.6 260.8,154.4 321.6,154.4 321.6,155.6 	"/>
	<polygon style="fill:#84DBFF;" points="260.8,150.8 260.4,149.6 320.8,149.6 321.2,150.8 	"/>
	<polygon style="fill:#84DBFF;" points="260.4,145.6 260.4,144.4 320.4,144.4 320.4,145.6 	"/>
	<polygon style="fill:#84DBFF;" points="260.4,140.8 260.4,139.6 319.6,139.6 320,140.8 	"/>
</g>
<polygon style="fill:#54C0EB;" points="398.4,164.4 391.2,136.4 332.4,136.4 336.4,164.4 "/>
<g>
	<polygon style="fill:#84DBFF;" points="390.4,164.4 388,164.4 381.6,136.4 384,136.4 	"/>
	<polygon style="fill:#84DBFF;" points="379.6,164.4 376.8,164.4 370.8,136.4 373.6,136.4 	"/>
	<polygon style="fill:#84DBFF;" points="368.4,164.4 366,164.4 360.4,136.4 362.8,136.4 	"/>
	<polygon style="fill:#84DBFF;" points="357.6,164.4 354.8,164.4 350,136.4 352.4,136.4 	"/>
	<polygon style="fill:#84DBFF;" points="346.4,164.4 344,164.4 339.6,136.4 342,136.4 	"/>
	<polygon style="fill:#84DBFF;" points="335.6,160.8 335.6,159.6 396.8,159.6 397.2,160.8 	"/>
	<polygon style="fill:#84DBFF;" points="335.2,155.6 334.8,154.4 395.6,154.4 396,155.6 	"/>
	<polygon style="fill:#84DBFF;" points="334.4,150.8 334,149.6 394.4,149.6 394.8,150.8 	"/>
	<polygon style="fill:#84DBFF;" points="333.6,145.6 333.6,144.4 393.2,144.4 393.6,145.6 	"/>
	<polygon style="fill:#84DBFF;" points="332.8,140.8 332.8,139.6 392,139.6 392.4,140.8 	"/>
</g>
<polygon style="fill:#54C0EB;" points="166.4,202.4 170.8,170.4 108.4,170.4 100.4,202.4 "/>
<g>
	<polygon style="fill:#84DBFF;" points="158.4,202.4 155.6,202.4 160.4,170.4 163.2,170.4 	"/>
	<polygon style="fill:#84DBFF;" points="146.4,202.4 143.6,202.4 149.6,170.4 152,170.4 	"/>
	<polygon style="fill:#84DBFF;" points="134.8,202.4 132,202.4 138.4,170.4 140.8,170.4 	"/>
	<polygon style="fill:#84DBFF;" points="123.2,202.4 120.4,202.4 127.2,170.4 130,170.4 	"/>
	<polygon style="fill:#84DBFF;" points="111.6,202.4 108.8,202.4 116,170.4 118.8,170.4 	"/>
	<polygon style="fill:#84DBFF;" points="101.6,198 102,196.8 167.2,196.8 166.8,198 	"/>
	<polygon style="fill:#84DBFF;" points="102.8,192.4 103.2,190.8 168,190.8 167.6,192.4 	"/>
	<polygon style="fill:#84DBFF;" points="104.4,186.4 104.8,185.2 168.8,185.2 168.8,186.4 	"/>
	<polygon style="fill:#84DBFF;" points="105.6,180.8 106,179.6 169.6,179.6 169.2,180.8 	"/>
	<polygon style="fill:#84DBFF;" points="107.2,175.6 107.6,174 170.4,174 170,175.6 	"/>
</g>
<polygon style="fill:#54C0EB;" points="246.8,202.4 247.2,170.4 184.8,170.4 180.8,202.4 "/>
<g>
	<polygon style="fill:#84DBFF;" points="238.4,202.4 236,202.4 236.8,170.4 239.2,170.4 	"/>
	<polygon style="fill:#84DBFF;" points="226.8,202.4 224,202.4 225.6,170.4 228.4,170.4 	"/>
	<polygon style="fill:#84DBFF;" points="215.2,202.4 212.4,202.4 214.4,170.4 217.2,170.4 	"/>
	<polygon style="fill:#84DBFF;" points="203.6,202.4 200.8,202.4 203.6,170.4 206,170.4 	"/>
	<polygon style="fill:#84DBFF;" points="192,202.4 189.2,202.4 192.4,170.4 195.2,170.4 	"/>
	<polygon style="fill:#84DBFF;" points="181.2,198 181.6,196.8 246.8,196.8 246.8,198 	"/>
	<polygon style="fill:#84DBFF;" points="182,192.4 182,190.8 246.8,190.8 246.8,192.4 	"/>
	<polygon style="fill:#84DBFF;" points="182.8,186.4 182.8,185.2 246.8,185.2 246.8,186.4 	"/>
	<polygon style="fill:#84DBFF;" points="183.2,180.8 183.6,179.6 247.2,179.6 247.2,180.8 	"/>
	<polygon style="fill:#84DBFF;" points="184,175.6 184,174 247.2,174 247.2,175.6 	"/>
</g>
<polygon style="fill:#54C0EB;" points="327.2,202.4 323.6,170.4 260.8,170.4 261.2,202.4 "/>
<g>
	<polygon style="fill:#84DBFF;" points="318.8,202.4 316,202.4 312.8,170.4 315.6,170.4 	"/>
	<polygon style="fill:#84DBFF;" points="307.2,202.4 304.4,202.4 302,170.4 304.4,170.4 	"/>
	<polygon style="fill:#84DBFF;" points="295.6,202.4 292.8,202.4 290.8,170.4 293.6,170.4 	"/>
	<polygon style="fill:#84DBFF;" points="284,202.4 281.2,202.4 279.6,170.4 282.4,170.4 	"/>
	<polygon style="fill:#84DBFF;" points="272.4,202.4 269.6,202.4 268.8,170.4 271.2,170.4 	"/>
	<polygon style="fill:#84DBFF;" points="261.2,198 261.2,196.8 326.4,196.8 326.8,198 	"/>
	<polygon style="fill:#84DBFF;" points="261.2,192.4 261.2,190.8 325.6,190.8 326,192.4 	"/>
	<polygon style="fill:#84DBFF;" points="261.2,186.4 261.2,185.2 325.2,185.2 325.2,186.4 	"/>
	<polygon style="fill:#84DBFF;" points="260.8,180.8 260.8,179.6 324.4,179.6 324.8,180.8 	"/>
	<polygon style="fill:#84DBFF;" points="260.8,175.6 260.8,174 324,174 324,175.6 	"/>
</g>
<polygon style="fill:#54C0EB;" points="407.6,202.4 399.6,170.4 337.2,170.4 341.6,202.4 "/>
<g>
	<polygon style="fill:#84DBFF;" points="399.2,202.4 396.4,202.4 389.2,170.4 392,170.4 	"/>
	<polygon style="fill:#84DBFF;" points="387.6,202.4 384.8,202.4 378,170.4 380.8,170.4 	"/>
	<polygon style="fill:#84DBFF;" points="376,202.4 373.2,202.4 367.2,170.4 369.6,170.4 	"/>
	<polygon style="fill:#84DBFF;" points="364.4,202.4 361.6,202.4 356,170.4 358.8,170.4 	"/>
	<polygon style="fill:#84DBFF;" points="352.4,202.4 350,202.4 344.8,170.4 347.6,170.4 	"/>
	<polygon style="fill:#84DBFF;" points="340.8,198 340.8,196.8 406,196.8 406.4,198 	"/>
	<polygon style="fill:#84DBFF;" points="340,192.4 340,190.8 404.8,190.8 405.2,192.4 	"/>
	<polygon style="fill:#84DBFF;" points="339.2,186.4 339.2,185.2 403.2,185.2 403.6,186.4 	"/>
	<polygon style="fill:#84DBFF;" points="338.4,180.8 338.4,179.6 402,179.6 402.4,180.8 	"/>
	<polygon style="fill:#84DBFF;" points="338,175.6 337.6,174 400.4,174 400.8,175.6 	"/>
</g>
<polygon style="fill:#54C0EB;" points="160.4,245.2 165.6,208.8 98.8,208.8 90,245.2 "/>
<g>
	<polygon style="fill:#84DBFF;" points="151.6,245.2 148.8,245.2 154.4,208.8 157.2,208.8 	"/>
	<polygon style="fill:#84DBFF;" points="139.2,245.2 136,245.2 142.4,208.8 145.2,208.8 	"/>
	<polygon style="fill:#84DBFF;" points="126.4,245.2 123.6,245.2 130.8,208.8 133.6,208.8 	"/>
	<polygon style="fill:#84DBFF;" points="114,245.2 111.2,245.2 118.8,208.8 121.6,208.8 	"/>
	<polygon style="fill:#84DBFF;" points="101.6,245.2 98.8,245.2 107.2,208.8 110,208.8 	"/>
	<polygon style="fill:#84DBFF;" points="91.2,240.4 91.6,238.8 161.2,238.8 160.8,240.4 	"/>
	<polygon style="fill:#84DBFF;" points="92.8,234 93.2,232.4 162,232.4 162,234 	"/>
	<polygon style="fill:#84DBFF;" points="94.4,227.2 94.8,226 163.2,226 162.8,227.2 	"/>
	<polygon style="fill:#84DBFF;" points="96,221.2 96.4,219.6 164,219.6 163.6,221.2 	"/>
	<polygon style="fill:#84DBFF;" points="97.2,214.8 97.6,213.2 164.8,213.2 164.8,214.8 	"/>
</g>
<polygon style="fill:#54C0EB;" points="246.4,245.2 246.8,208.8 180,208.8 176,245.2 "/>
<g>
	<polygon style="fill:#84DBFF;" points="237.6,245.2 234.4,245.2 235.6,208.8 238.4,208.8 	"/>
	<polygon style="fill:#84DBFF;" points="225.2,245.2 222,245.2 224,208.8 226.8,208.8 	"/>
	<polygon style="fill:#84DBFF;" points="212.4,245.2 209.6,245.2 212,208.8 214.8,208.8 	"/>
	<polygon style="fill:#84DBFF;" points="200,245.2 197.2,245.2 200,208.8 202.8,208.8 	"/>
	<polygon style="fill:#84DBFF;" points="187.6,245.2 184.4,245.2 188.4,208.8 191.2,208.8 	"/>
	<polygon style="fill:#84DBFF;" points="176.4,240.4 176.4,238.8 246.4,238.8 246.4,240.4 	"/>
	<polygon style="fill:#84DBFF;" points="177.2,234 177.2,232.4 246.4,232.4 246.4,234 	"/>
	<polygon style="fill:#84DBFF;" points="178,227.2 178,226 246.4,226 246.4,227.2 	"/>
	<polygon style="fill:#84DBFF;" points="178.8,221.2 178.8,219.6 246.4,219.6 246.4,221.2 	"/>
	<polygon style="fill:#84DBFF;" points="179.2,214.8 179.6,213.2 246.8,213.2 246.8,214.8 	"/>
</g>
<polygon style="fill:#54C0EB;" points="332.4,245.2 328,208.8 261.2,208.8 261.6,245.2 "/>
<g>
	<polygon style="fill:#84DBFF;" points="323.6,245.2 320.4,245.2 316.8,208.8 319.6,208.8 	"/>
	<polygon style="fill:#84DBFF;" points="310.8,245.2 308,245.2 305.2,208.8 308,208.8 	"/>
	<polygon style="fill:#84DBFF;" points="298.4,245.2 295.6,245.2 293.2,208.8 296,208.8 	"/>
	<polygon style="fill:#84DBFF;" points="286,245.2 283.2,245.2 281.6,208.8 284.4,208.8 	"/>
	<polygon style="fill:#84DBFF;" points="273.6,245.2 270.4,245.2 269.6,208.8 272.4,208.8 	"/>
	<polygon style="fill:#84DBFF;" points="261.6,240.4 261.6,238.8 331.6,238.8 331.6,240.4 	"/>
	<polygon style="fill:#84DBFF;" points="261.6,234 261.6,232.4 330.8,232.4 330.8,234 	"/>
	<polygon style="fill:#84DBFF;" points="261.6,227.2 261.6,226 330,226 330,227.2 	"/>
	<polygon style="fill:#84DBFF;" points="261.6,221.2 261.6,219.6 329.2,219.6 329.2,221.2 	"/>
	<polygon style="fill:#84DBFF;" points="261.2,214.8 261.2,213.2 328.4,213.2 328.4,214.8 	"/>
</g>
<polygon style="fill:#54C0EB;" points="418,245.2 409.2,208.8 342.4,208.8 347.6,245.2 "/>
<g>
	<polygon style="fill:#84DBFF;" points="409.2,245.2 406.4,245.2 398,208.8 400.8,208.8 	"/>
	<polygon style="fill:#84DBFF;" points="396.8,245.2 394,245.2 386.4,208.8 389.2,208.8 	"/>
	<polygon style="fill:#84DBFF;" points="384.4,245.2 381.6,245.2 374.4,208.8 377.2,208.8 	"/>
	<polygon style="fill:#84DBFF;" points="372,245.2 368.8,245.2 362.8,208.8 365.6,208.8 	"/>
	<polygon style="fill:#84DBFF;" points="359.6,245.2 356.4,245.2 350.8,208.8 353.6,208.8 	"/>
	<polygon style="fill:#84DBFF;" points="346.8,240.4 346.8,238.8 416.4,238.8 416.8,240.4 	"/>
	<polygon style="fill:#84DBFF;" points="346,234 346,232.4 414.8,232.4 415.2,234 	"/>
	<polygon style="fill:#84DBFF;" points="345.2,227.2 344.8,226 413.2,226 413.6,227.2 	"/>
	<polygon style="fill:#84DBFF;" points="344.4,221.2 344,219.6 411.6,219.6 412,221.2 	"/>
	<polygon style="fill:#84DBFF;" points="343.2,214.8 343.2,213.2 410.4,213.2 410.4,214.8 	"/>
</g>
<g>
</g>
<g>
</g>
<g>
</g>
<g>
</g>
<g>
</g>
<g>
</g>
<g>
</g>
<g>
</g>
<g>
</g>
<g>
</g>
<g>
</g>
<g>
</g>
<g>
</g>
<g>
</g>
<g>
</g>
</svg>
