<?xml version="1.0" encoding="UTF-8" standalone="no"?>
<svg
   xmlns:dc="http://purl.org/dc/elements/1.1/"
   xmlns:cc="http://creativecommons.org/ns#"
   xmlns:rdf="http://www.w3.org/1999/02/22-rdf-syntax-ns#"
   xmlns:svg="http://www.w3.org/2000/svg"
   xmlns="http://www.w3.org/2000/svg"
   version="1.1"
   id="svg27025"
   viewBox="0 0 476.57399 133.41999"
   width="134.49977mm"
   height="37.654087mm">
  <defs
     id="defs27031" />
  <metadata
     id="metadata27027">
    <rdf:RDF>
      <cc:Work
         rdf:about="">
        <dc:format>image/svg+xml</dc:format>
        <dc:type
           rdf:resource="http://purl.org/dc/dcmitype/StillImage" />
        <dc:title></dc:title>
      </cc:Work>
    </rdf:RDF>
  </metadata>
  <g
     id="g5903"
     transform="translate(-356.224,-535.445)">
    <path
       id="path5905"
       d="m 826.512,580.728 -9.428,0 0,-36.426 c -0.428,-3.428 -3.428,-6.856 -6.857,-6.856 l -445.146,0 c -3.857,0 -6.857,2.999 -6.857,6.856 l 0,115.707 c 0,3.857 3,6.856 6.857,6.856 l 445.146,0 c 3.856,0 6.857,-2.999 6.857,-6.856 l 0,-36.426 9.428,0 c 2.144,0 4.286,-1.714 4.286,-4.287 l 0,-34.282 c 0,-2.144 -1.713,-4.286 -4.286,-4.286 z"
       style="fill:#ffffff" />
    <path
       id="path5907"
       d="m 810.227,668.865 -445.146,0 c -4.967,0 -8.857,-3.89 -8.857,-8.856 l 0,-115.708 c 0,-4.966 3.891,-8.856 8.857,-8.856 l 445.146,0 c 4.646,0 8.322,4.451 8.842,8.608 l 0.015,0.248 0,34.426 7.428,0 c 3.883,0 6.286,3.263 6.286,6.286 l 0,34.282 c 0,3.883 -3.263,6.287 -6.286,6.287 l -7.428,0 0,34.426 c 0,4.967 -3.89,8.857 -8.857,8.857 l 0,0 z M 365.081,539.445 c -2.769,0 -4.857,2.088 -4.857,4.856 l 0,115.707 c 0,2.769 2.088,4.856 4.857,4.856 l 445.146,0 c 2.769,0 4.857,-2.088 4.857,-4.856 l 0,-38.426 11.428,0 c 1.1,0 2.286,-0.875 2.286,-2.287 l 0,-34.282 c 0,-1.1 -0.874,-2.286 -2.286,-2.286 l -11.428,0 0,-38.292 c -0.353,-2.379 -2.471,-4.991 -4.857,-4.991 l -445.146,0 0,0.001 z"
       style="fill:#707173" />
  </g>
</svg>
