<?xml version="1.0" encoding="UTF-8" standalone="no"?>
<!-- Created with Inkscape (http://www.inkscape.org/) -->

<svg
   xmlns:dc="http://purl.org/dc/elements/1.1/"
   xmlns:cc="http://creativecommons.org/ns#"
   xmlns:rdf="http://www.w3.org/1999/02/22-rdf-syntax-ns#"
   xmlns:svg="http://www.w3.org/2000/svg"
   xmlns="http://www.w3.org/2000/svg"
   xmlns:sodipodi="http://sodipodi.sourceforge.net/DTD/sodipodi-0.dtd"
   xmlns:inkscape="http://www.inkscape.org/namespaces/inkscape"
   height="115.5175mm"
   width="115.63886mm"
   viewBox="0 0 409.744 409.31398"
   id="svg50849"
   version="1.1"
   inkscape:version="0.91 r13725"
   sodipodi:docname="earth.svg">
  <defs
     id="defs50855" />
  <sodipodi:namedview
     pagecolor="#ffffff"
     bordercolor="#666666"
     borderopacity="1"
     objecttolerance="10"
     gridtolerance="10"
     guidetolerance="10"
     inkscape:pageopacity="0"
     inkscape:pageshadow="2"
     inkscape:window-width="1920"
     inkscape:window-height="1896"
     id="namedview50853"
     showgrid="false"
     fit-margin-top="0"
     fit-margin-left="0"
     fit-margin-right="0"
     fit-margin-bottom="0"
     inkscape:zoom="0.22425739"
     inkscape:cx="204.872"
     inkscape:cy="204.65701"
     inkscape:window-x="0"
     inkscape:window-y="24"
     inkscape:window-maximized="1"
     inkscape:current-layer="svg50849" />
  <metadata
     id="metadata50851">
    <rdf:RDF>
      <cc:Work
         rdf:about="">
        <dc:format>image/svg+xml</dc:format>
        <dc:type
           rdf:resource="http://purl.org/dc/dcmitype/StillImage" />
        <dc:title></dc:title>
      </cc:Work>
    </rdf:RDF>
  </metadata>
  <g
     transform="translate(-393.551,-2537.5361)"
     id="g49314">
    <circle
       style="fill:#0b72b5"
       cx="598.422"
       cy="2742.1931"
       r="204.657"
       id="circle49316" />
  </g>
  <g
     transform="translate(-393.551,-2537.5361)"
     id="g49318">
    <g
       id="g49320">
      <path
         style="fill:#97bf0d"
         inkscape:connector-curvature="0"
         d="m 734.082,2599.953 c -14.436,1.273 -29.297,2.123 -43.733,-0.85 -13.163,-2.972 -26.325,-9.341 -39.913,-8.067 -11.888,1.274 -22.504,8.067 -32.694,14.861 7.643,2.547 9.766,13.163 5.52,19.956 -4.246,6.794 -12.313,9.766 -20.38,10.615 0.849,7.643 0.424,17.409 -6.793,19.532 -2.548,0.424 -5.096,0 -7.218,0 -4.246,0 -8.492,1.273 -11.04,4.67 -2.547,3.397 -2.547,8.491 0.424,11.464 3.822,3.397 9.341,12.738 7.643,13.587 -19.107,13.164 -36.941,31.846 -38.215,54.774 -1.273,15.285 5.096,30.146 14.438,42.459 1.698,2.124 3.397,4.672 6.369,5.52 1.698,0.85 3.822,0.425 5.945,0.425 16.559,-0.425 60.293,14.861 63.265,24.202 1.699,4.671 1.274,9.766 0.85,14.862 -0.85,12.737 -3.397,25.901 -0.425,38.639 2.972,12.737 12.737,24.626 25.901,25.051 14.011,0.424 24.626,-12.314 29.297,-25.477 1.698,-4.247 2.972,-8.916 6.369,-11.888 2.548,-2.124 7.643,-12.313 6.794,-15.286 -2.972,-10.615 -0.425,-22.504 6.37,-30.996 5.519,-6.369 12.737,-10.614 18.682,-16.135 5.944,-5.945 9.766,-14.861 5.944,-22.503 -2.972,1.698 -7.218,0.424 -8.917,-2.124 -2.123,-2.547 -1.697,-6.792 0.425,-9.34 2.972,-3.397 8.492,-2.973 12.738,-4.671 5.944,-2.124 10.19,-8.067 11.464,-14.012 1.698,-5.944 1.273,-12.738 0.849,-19.107 4.67,-3.397 11.464,-0.85 15.285,3.397 3.398,4.67 4.671,10.189 6.37,15.71 2.547,11.04 6.369,21.655 11.039,31.845 2.973,-12.313 5.944,-25.052 8.493,-37.365 4.246,5.521 5.944,12.313 7.643,19.107 0,-3.397 0.424,-6.794 0.424,-10.19 0,-55.623 -22.079,-106.15 -58.17,-142.665 -4.25,-0.425 -7.646,0 -11.043,0 z"
         id="path49322" />
    </g>
    <g
       id="g49324">
      <path
         style="fill:#97bf0d"
         inkscape:connector-curvature="0"
         d="m 511.591,2585.092 c -11.04,3.396 -22.504,6.793 -32.27,12.738 -16.56,10.189 -29.723,28.447 -49.254,30.995 -0.848,0 -1.698,0 -2.548,0.425 -21.654,32.27 -33.968,71.333 -33.968,112.943 0,1.274 0,2.123 0,3.397 3.396,5.095 8.068,10.616 14.437,10.19 2.548,-6.369 -3.821,-12.738 -3.397,-19.532 0,-2.546 26.75,-53.074 31.421,-58.169 10.616,-11.888 26.326,-16.56 40.336,-24.202 2.123,-1.274 6.794,-11.464 6.37,-15.286 -0.425,-12.314 3.821,-24.627 12.313,-33.118 3.821,-3.822 10.615,-6.794 13.586,-2.548 1.699,2.548 7.219,8.917 8.917,8.917 30.995,-2.123 61.142,-17.834 80.674,-42.036 -29.295,-1.274 -58.168,6.794 -86.617,15.286 z"
         id="path49326" />
    </g>
    <g
       id="g49328">
      <path
         style="fill:#97bf0d"
         inkscape:connector-curvature="0"
         d="m 492.909,2800.787 c -6.369,-3.396 -32.694,-25.05 -39.913,-32.693 -6.792,-7.642 -17.408,-14.012 -27.174,-10.615 -11.039,3.821 -14.861,16.984 -17.408,28.024 -0.85,3.822 -1.698,7.643 -0.425,11.464 1.275,3.821 5.521,6.369 8.917,4.67 0,-4.67 6.369,-7.643 9.766,-4.67 -3.397,4.246 -2.548,11.04 1.698,14.437 1.698,1.274 8.068,6.793 8.917,9.34 6.369,17.409 8.492,36.092 15.709,52.651 3.398,8.067 8.067,15.71 11.04,23.777 3.397,2.972 6.794,5.52 10.191,8.067 0,-0.85 0.849,-16.984 1.699,-24.202 0.849,-7.219 3.821,-14.862 9.766,-19.107 3.821,-2.548 10.614,-15.285 10.614,-19.107 0.425,-8.917 8.493,-16.56 8.067,-25.901 0.425,-6.793 -5.096,-12.737 -11.464,-16.135 z"
         id="path49330" />
    </g>
  </g>
</svg>
